<svg xmlns="http://www.w3.org/2000/svg" xmlns:xlink="http://www.w3.org/1999/xlink" width="702" zoomAndPan="magnify" viewBox="90 98 702 355" height="355" preserveAspectRatio="xMidYMid meet" version="1.0"><defs><g/><clipPath id="0c7bc19a8b"><rect x="0" width="488" y="0" height="142"/></clipPath><clipPath id="46afefb2a1"><rect x="0" width="705" y="0" height="142"/></clipPath><clipPath id="5f6c3a99a2"><rect x="0" width="609" y="0" height="46"/></clipPath><clipPath id="770e7a6917"><rect x="0" width="82" y="0" height="189"/></clipPath></defs><g transform="matrix(1, 0, 0, 1, 207, 163)"><g clip-path="url(#0c7bc19a8b)"><g fill="#fdf9f5" fill-opacity="1"><g transform="translate(1.026499, 110.120772)"><g><path d="M 6.09375 -28.78125 L 10.5 -28.78125 C 11.550781 -21.632812 14.410156 -16.007812 19.078125 -11.90625 C 23.742188 -7.800781 29.5 -5.75 36.34375 -5.75 C 39.125 -5.75 41.679688 -6.085938 44.015625 -6.765625 C 46.347656 -7.441406 48.34375 -8.398438 50 -9.640625 C 51.65625 -10.890625 52.929688 -12.359375 53.828125 -14.046875 C 54.734375 -15.742188 55.1875 -17.644531 55.1875 -19.75 C 55.1875 -21.550781 54.90625 -23.109375 54.34375 -24.421875 C 53.78125 -25.742188 52.707031 -27.023438 51.125 -28.265625 C 49.539062 -29.515625 47.375 -30.773438 44.625 -32.046875 C 41.882812 -33.328125 38.332031 -34.796875 33.96875 -36.453125 C 25.164062 -39.835938 18.65625 -43.769531 14.4375 -48.25 C 10.226562 -52.726562 8.125 -58.015625 8.125 -64.109375 C 8.125 -67.640625 8.800781 -70.875 10.15625 -73.8125 C 11.507812 -76.75 13.410156 -79.269531 15.859375 -81.375 C 18.304688 -83.476562 21.238281 -85.113281 24.65625 -86.28125 C 28.082031 -87.445312 31.863281 -88.03125 36 -88.03125 C 39.84375 -88.03125 43.457031 -87.425781 46.84375 -86.21875 C 50.226562 -85.019531 53.570312 -83.21875 56.875 -80.8125 L 58.90625 -86.453125 L 61.625 -86.453125 L 62.859375 -62.078125 L 58.46875 -62.078125 C 56.65625 -68.242188 53.828125 -72.960938 49.984375 -76.234375 C 46.148438 -79.503906 41.710938 -81.140625 36.671875 -81.140625 C 32.015625 -81.140625 28.234375 -79.992188 25.328125 -77.703125 C 22.429688 -75.410156 20.984375 -72.457031 20.984375 -68.84375 C 20.984375 -67.257812 21.25 -65.847656 21.78125 -64.609375 C 22.3125 -63.367188 23.289062 -62.179688 24.71875 -61.046875 C 26.144531 -59.921875 28.097656 -58.773438 30.578125 -57.609375 C 33.066406 -56.441406 36.265625 -55.144531 40.171875 -53.71875 C 45.441406 -51.6875 49.9375 -49.632812 53.65625 -47.5625 C 57.382812 -45.5 60.429688 -43.28125 62.796875 -40.90625 C 65.171875 -38.539062 66.921875 -36.039062 68.046875 -33.40625 C 69.179688 -30.769531 69.75 -27.875 69.75 -24.71875 C 69.75 -20.875 68.921875 -17.375 67.265625 -14.21875 C 65.609375 -11.0625 63.289062 -8.351562 60.3125 -6.09375 C 57.34375 -3.832031 53.804688 -2.0625 49.703125 -0.78125 C 45.609375 0.488281 41.078125 1.125 36.109375 1.125 C 31.597656 1.125 27.535156 0.503906 23.921875 -0.734375 C 20.316406 -1.972656 16.59375 -3.984375 12.75 -6.765625 L 10.5 0 L 7.78125 0 Z M 6.09375 -28.78125 "/></g></g></g><g fill="#fdf9f5" fill-opacity="1"><g transform="translate(76.172748, 110.120772)"><g><path d="M 24.609375 -52.484375 L 25.0625 -52.484375 C 30.019531 -58.117188 36.488281 -60.9375 44.46875 -60.9375 C 48.832031 -60.9375 52.835938 -60.164062 56.484375 -58.625 C 60.128906 -57.082031 63.285156 -54.9375 65.953125 -52.1875 C 68.628906 -49.445312 70.703125 -46.175781 72.171875 -42.375 C 73.640625 -38.570312 74.375 -34.414062 74.375 -29.90625 C 74.375 -25.394531 73.640625 -21.253906 72.171875 -17.484375 C 70.703125 -13.722656 68.648438 -10.453125 66.015625 -7.671875 C 63.390625 -4.890625 60.25 -2.726562 56.59375 -1.1875 C 52.945312 0.351562 48.976562 1.125 44.6875 1.125 C 37.394531 1.125 31.828125 -1.351562 27.984375 -6.3125 L 27.53125 -6.3125 L 27.53125 9.375 C 27.53125 12.375 27.679688 14.773438 27.984375 16.578125 C 28.285156 18.390625 28.925781 19.785156 29.90625 20.765625 C 30.882812 21.742188 32.253906 22.421875 34.015625 22.796875 C 35.785156 23.171875 38.140625 23.394531 41.078125 23.46875 L 41.078125 28.21875 L 2.140625 28.21875 L 2.140625 23.46875 C 4.171875 23.394531 5.828125 23.171875 7.109375 22.796875 C 8.390625 22.421875 9.382812 21.742188 10.09375 20.765625 C 10.8125 19.785156 11.300781 18.445312 11.5625 16.75 C 11.832031 15.0625 11.96875 12.863281 11.96875 10.15625 L 11.96875 -31.828125 C 11.96875 -35.285156 11.890625 -38.578125 11.734375 -41.703125 C 11.585938 -44.828125 11.398438 -47.023438 11.171875 -48.296875 C 10.796875 -50.035156 9.945312 -51.242188 8.625 -51.921875 C 7.3125 -52.597656 5.078125 -52.9375 1.921875 -52.9375 L 1.921875 -57.328125 L 24.609375 -60.5 Z M 43.796875 -54.515625 C 41.378906 -54.515625 39.078125 -53.984375 36.890625 -52.921875 C 34.710938 -51.867188 32.988281 -50.476562 31.71875 -48.75 C 30.4375 -47.019531 29.457031 -44.859375 28.78125 -42.265625 C 28.101562 -39.671875 27.765625 -36.867188 27.765625 -33.859375 L 27.765625 -26.1875 C 27.765625 -20.84375 29.082031 -16.289062 31.71875 -12.53125 C 34.570312 -8.382812 38.597656 -6.3125 43.796875 -6.3125 C 48.378906 -6.3125 51.78125 -8.210938 54 -12.015625 C 56.21875 -15.816406 57.328125 -21.707031 57.328125 -29.6875 C 57.328125 -46.238281 52.816406 -54.515625 43.796875 -54.515625 Z M 43.796875 -54.515625 "/></g></g></g><g fill="#fdf9f5" fill-opacity="1"><g transform="translate(155.945258, 110.120772)"><g><path d="M 38.828125 -32.171875 C 32.503906 -29.304688 27.742188 -26.648438 24.546875 -24.203125 C 21.347656 -21.765625 19.75 -19.226562 19.75 -16.59375 C 19.75 -14.40625 20.347656 -12.671875 21.546875 -11.390625 C 22.753906 -10.117188 24.265625 -9.484375 26.078125 -9.484375 C 27.878906 -9.484375 29.566406 -9.800781 31.140625 -10.4375 C 32.722656 -11.082031 34.078125 -11.929688 35.203125 -12.984375 C 36.335938 -14.035156 37.222656 -15.289062 37.859375 -16.75 C 38.503906 -18.21875 38.828125 -19.78125 38.828125 -21.4375 Z M 38.828125 -38.140625 L 38.828125 -42.890625 C 38.828125 -47.253906 38.054688 -50.429688 36.515625 -52.421875 C 34.972656 -54.410156 32.582031 -55.40625 29.34375 -55.40625 C 27.164062 -55.40625 25.507812 -54.820312 24.375 -53.65625 C 23.25 -52.5 22.195312 -50.566406 21.21875 -47.859375 C 20.539062 -45.972656 19.582031 -44.503906 18.34375 -43.453125 C 17.101562 -42.398438 15.390625 -41.875 13.203125 -41.875 C 11.097656 -41.875 9.476562 -42.507812 8.34375 -43.78125 C 7.21875 -45.0625 6.65625 -46.867188 6.65625 -49.203125 C 6.65625 -52.816406 8.628906 -55.675781 12.578125 -57.78125 C 16.535156 -59.882812 22.5 -60.9375 30.46875 -60.9375 C 38.894531 -60.9375 44.914062 -59.410156 48.53125 -56.359375 C 52.144531 -53.316406 53.953125 -48.222656 53.953125 -41.078125 L 53.953125 -16.359375 C 53.953125 -9.960938 55.226562 -6.765625 57.78125 -6.765625 C 59.207031 -6.765625 60.523438 -7.253906 61.734375 -8.234375 L 63.421875 -4.96875 C 62.367188 -3.082031 60.734375 -1.59375 58.515625 -0.5 C 56.296875 0.582031 53.796875 1.125 51.015625 1.125 C 47.554688 1.125 44.921875 0.0703125 43.109375 -2.03125 C 41.304688 -4.132812 40.40625 -7.109375 40.40625 -10.953125 L 39.84375 -10.953125 C 37.65625 -7.035156 34.832031 -4.0625 31.375 -2.03125 C 27.914062 0 23.96875 1.015625 19.53125 1.015625 C 14.789062 1.015625 10.988281 -0.316406 8.125 -2.984375 C 5.269531 -5.660156 3.84375 -9.144531 3.84375 -13.4375 C 3.84375 -16.738281 5.304688 -19.835938 8.234375 -22.734375 C 11.171875 -25.640625 16.0625 -28.484375 22.90625 -31.265625 Z M 38.828125 -38.140625 "/></g></g></g><g fill="#fdf9f5" fill-opacity="1"><g transform="translate(221.839465, 110.120772)"><g><path d="M 29.125 -17.5 C 29.125 -14.5625 29.253906 -12.242188 29.515625 -10.546875 C 29.773438 -8.859375 30.316406 -7.5625 31.140625 -6.65625 C 31.972656 -5.75 33.175781 -5.164062 34.75 -4.90625 C 36.332031 -4.644531 38.441406 -4.515625 41.078125 -4.515625 L 41.078125 0 L 3.390625 0 L 3.390625 -4.515625 C 5.640625 -4.660156 7.441406 -4.882812 8.796875 -5.1875 C 10.148438 -5.488281 11.164062 -6.09375 11.84375 -7 C 12.519531 -7.90625 12.953125 -9.203125 13.140625 -10.890625 C 13.335938 -12.585938 13.4375 -14.863281 13.4375 -17.71875 L 13.4375 -31.484375 C 13.4375 -36.148438 13.320312 -39.875 13.09375 -42.65625 C 12.863281 -45.445312 12.375 -47.59375 11.625 -49.09375 C 10.875 -50.59375 9.800781 -51.585938 8.40625 -52.078125 C 7.007812 -52.566406 5.1875 -52.8125 2.9375 -52.8125 L 2.9375 -56.765625 L 25.5 -60.9375 L 27.3125 -47.96875 L 27.765625 -47.96875 C 29.796875 -51.957031 32.46875 -55.113281 35.78125 -57.4375 C 39.09375 -59.769531 42.585938 -60.9375 46.265625 -60.9375 C 49.128906 -60.9375 51.460938 -60.222656 53.265625 -58.796875 C 55.078125 -57.367188 55.984375 -55.5625 55.984375 -53.375 C 55.984375 -50.96875 55.285156 -48.9375 53.890625 -47.28125 C 52.492188 -45.632812 50.59375 -44.8125 48.1875 -44.8125 C 47.0625 -44.8125 46.046875 -45.035156 45.140625 -45.484375 C 44.242188 -45.929688 43.4375 -46.4375 42.71875 -47 C 42 -47.570312 41.28125 -48.097656 40.5625 -48.578125 C 39.851562 -49.066406 39.125 -49.3125 38.375 -49.3125 C 36.945312 -49.3125 35.59375 -48.367188 34.3125 -46.484375 C 33.03125 -44.609375 31.976562 -42.09375 31.15625 -38.9375 C 30.550781 -36.675781 30.0625 -34.132812 29.6875 -31.3125 C 29.3125 -28.5 29.125 -25.695312 29.125 -22.90625 Z M 29.125 -17.5 "/></g></g></g><g fill="#fdf9f5" fill-opacity="1"><g transform="translate(277.150023, 110.120772)"><g/></g></g><g fill="#fdf9f5" fill-opacity="1"><g transform="translate(308.29201, 110.120772)"><g/></g></g><g fill="#fdf9f5" fill-opacity="1"><g transform="translate(339.461082, 110.120772)"><g><path d="M 60.9375 -10.5 C 54.09375 -2.75 45.554688 1.125 35.328125 1.125 C 30.660156 1.125 26.425781 0.394531 22.625 -1.0625 C 18.820312 -2.53125 15.566406 -4.597656 12.859375 -7.265625 C 10.148438 -9.941406 8.039062 -13.125 6.53125 -16.8125 C 5.03125 -20.5 4.28125 -24.601562 4.28125 -29.125 C 4.28125 -33.78125 5.070312 -38.046875 6.65625 -41.921875 C 8.238281 -45.796875 10.476562 -49.144531 13.375 -51.96875 C 16.269531 -54.789062 19.691406 -56.988281 23.640625 -58.5625 C 27.585938 -60.144531 31.929688 -60.9375 36.671875 -60.9375 C 44.648438 -60.9375 50.859375 -58.789062 55.296875 -54.5 C 59.734375 -50.21875 61.953125 -44.203125 61.953125 -36.453125 C 61.953125 -35.242188 61.765625 -34.507812 61.390625 -34.25 C 61.015625 -33.988281 59.960938 -33.859375 58.234375 -33.859375 L 21.890625 -33.859375 C 21.585938 -33.179688 21.4375 -31.941406 21.4375 -30.140625 C 21.4375 -22.765625 23.035156 -16.929688 26.234375 -12.640625 C 29.429688 -8.347656 33.78125 -6.203125 39.28125 -6.203125 C 42.4375 -6.203125 45.570312 -6.914062 48.6875 -8.34375 C 51.8125 -9.78125 54.84375 -11.816406 57.78125 -14.453125 Z M 39.046875 -40.171875 C 42.054688 -40.171875 43.992188 -40.335938 44.859375 -40.671875 C 45.722656 -41.015625 46.15625 -41.828125 46.15625 -43.109375 C 46.15625 -46.421875 45.210938 -49.128906 43.328125 -51.234375 C 41.453125 -53.335938 39.085938 -54.390625 36.234375 -54.390625 C 32.992188 -54.390625 30.113281 -53.054688 27.59375 -50.390625 C 25.070312 -47.722656 23.4375 -44.316406 22.6875 -40.171875 Z M 39.046875 -40.171875 "/></g></g></g><g fill="#fdf9f5" fill-opacity="1"><g transform="translate(406.596434, 110.120772)"><g><path d="M 54.28125 -7.21875 L 53.828125 -7.21875 C 48.640625 -1.65625 41.90625 1.125 33.625 1.125 C 29.34375 1.125 25.414062 0.375 21.84375 -1.125 C 18.269531 -2.632812 15.179688 -4.742188 12.578125 -7.453125 C 9.984375 -10.160156 7.972656 -13.375 6.546875 -17.09375 C 5.117188 -20.820312 4.40625 -24.941406 4.40625 -29.453125 C 4.40625 -33.972656 5.132812 -38.148438 6.59375 -41.984375 C 8.0625 -45.816406 10.054688 -49.144531 12.578125 -51.96875 C 15.097656 -54.789062 18.109375 -56.988281 21.609375 -58.5625 C 25.109375 -60.144531 28.890625 -60.9375 32.953125 -60.9375 C 36.710938 -60.9375 40.039062 -60.375 42.9375 -59.25 C 45.832031 -58.125 48.375 -56.207031 50.5625 -53.5 L 51.015625 -53.5 L 51.015625 -63.09375 C 51.015625 -67.53125 50.957031 -71.347656 50.84375 -74.546875 C 50.726562 -77.742188 50.554688 -79.832031 50.328125 -80.8125 C 49.953125 -82.382812 48.804688 -83.53125 46.890625 -84.25 C 44.972656 -84.96875 42.019531 -85.328125 38.03125 -85.328125 L 38.03125 -89.15625 L 66.59375 -93.671875 L 66.59375 -29.125 C 66.59375 -23.476562 66.644531 -19.128906 66.75 -16.078125 C 66.863281 -13.035156 67.070312 -10.722656 67.375 -9.140625 C 67.53125 -8.160156 67.753906 -7.367188 68.046875 -6.765625 C 68.347656 -6.171875 68.800781 -5.703125 69.40625 -5.359375 C 70.007812 -5.023438 70.816406 -4.800781 71.828125 -4.6875 C 72.847656 -4.570312 74.148438 -4.515625 75.734375 -4.515625 L 75.734375 -0.109375 L 54.28125 1.125 Z M 50.78125 -32.390625 C 50.78125 -35.242188 50.476562 -37.894531 49.875 -40.34375 C 49.28125 -42.789062 48.378906 -44.957031 47.171875 -46.84375 C 45.816406 -49.019531 44.085938 -50.671875 41.984375 -51.796875 C 39.878906 -52.929688 37.625 -53.5 35.21875 -53.5 C 30.769531 -53.5 27.378906 -51.46875 25.046875 -47.40625 C 22.722656 -43.34375 21.5625 -37.4375 21.5625 -29.6875 C 21.5625 -21.851562 22.722656 -15.828125 25.046875 -11.609375 C 27.378906 -7.398438 30.726562 -5.296875 35.09375 -5.296875 C 37.582031 -5.296875 39.953125 -5.9375 42.203125 -7.21875 C 44.460938 -8.5 46.304688 -10.234375 47.734375 -12.421875 C 48.785156 -14.066406 49.554688 -16.113281 50.046875 -18.5625 C 50.535156 -21.007812 50.78125 -24.148438 50.78125 -27.984375 Z M 50.78125 -32.390625 "/></g></g></g></g></g><g transform="matrix(1, 0, 0, 1, 87, 260)"><g clip-path="url(#46afefb2a1)"><g fill="#fdf9f5" fill-opacity="1"><g transform="translate(1.436694, 109.828819)"><g><path d="M 79.796875 -86.90625 L 85.328125 -86.90625 L 83.0625 -58.34375 L 78.546875 -58.34375 C 76.972656 -65.269531 73.910156 -70.722656 69.359375 -74.703125 C 64.804688 -78.691406 59.289062 -80.6875 52.8125 -80.6875 C 48.375 -80.6875 44.425781 -79.800781 40.96875 -78.03125 C 37.507812 -76.269531 34.59375 -73.753906 32.21875 -70.484375 C 29.851562 -67.210938 28.046875 -63.222656 26.796875 -58.515625 C 25.554688 -53.816406 24.9375 -48.53125 24.9375 -42.65625 C 24.9375 -31 27.328125 -22.023438 32.109375 -15.734375 C 36.890625 -9.453125 43.941406 -6.3125 53.265625 -6.3125 C 60.796875 -6.3125 67.023438 -8.34375 71.953125 -12.40625 C 76.878906 -16.476562 80.394531 -22.535156 82.5 -30.578125 L 87.46875 -30.578125 L 87.46875 0 L 82.15625 0 L 80.578125 -8.921875 C 72.304688 -2.222656 62.265625 1.125 50.453125 1.125 C 43.597656 1.125 37.382812 0.109375 31.8125 -1.921875 C 26.25 -3.953125 21.507812 -6.828125 17.59375 -10.546875 C 13.6875 -14.273438 10.660156 -18.8125 8.515625 -24.15625 C 6.367188 -29.5 5.296875 -35.441406 5.296875 -41.984375 C 5.296875 -48.828125 6.425781 -55.070312 8.6875 -60.71875 C 10.945312 -66.363281 14.125 -71.21875 18.21875 -75.28125 C 22.320312 -79.34375 27.210938 -82.484375 32.890625 -84.703125 C 38.578125 -86.921875 44.878906 -88.03125 51.796875 -88.03125 C 56.390625 -88.03125 60.679688 -87.390625 64.671875 -86.109375 C 68.660156 -84.828125 72.984375 -82.757812 77.640625 -79.90625 Z M 79.796875 -86.90625 "/></g></g></g><g fill="#fdf9f5" fill-opacity="1"><g transform="translate(94.297341, 109.828819)"><g><path d="M 37.015625 -60.9375 C 41.535156 -60.9375 45.804688 -60.164062 49.828125 -58.625 C 53.847656 -57.082031 57.378906 -54.957031 60.421875 -52.25 C 63.472656 -49.539062 65.882812 -46.320312 67.65625 -42.59375 C 69.425781 -38.875 70.3125 -34.796875 70.3125 -30.359375 C 70.3125 -25.765625 69.425781 -21.550781 67.65625 -17.71875 C 65.882812 -13.882812 63.472656 -10.570312 60.421875 -7.78125 C 57.378906 -5 53.847656 -2.816406 49.828125 -1.234375 C 45.804688 0.335938 41.535156 1.125 37.015625 1.125 C 32.578125 1.125 28.363281 0.351562 24.375 -1.1875 C 20.382812 -2.726562 16.882812 -4.890625 13.875 -7.671875 C 10.875 -10.453125 8.503906 -13.78125 6.765625 -17.65625 C 5.035156 -21.53125 4.171875 -25.765625 4.171875 -30.359375 C 4.171875 -34.796875 5.035156 -38.894531 6.765625 -42.65625 C 8.503906 -46.414062 10.875 -49.648438 13.875 -52.359375 C 16.882812 -55.078125 20.382812 -57.1875 24.375 -58.6875 C 28.363281 -60.1875 32.578125 -60.9375 37.015625 -60.9375 Z M 37.015625 -54.390625 C 34.753906 -54.390625 32.679688 -53.804688 30.796875 -52.640625 C 28.921875 -51.484375 27.328125 -49.847656 26.015625 -47.734375 C 24.703125 -45.628906 23.6875 -43.085938 22.96875 -40.109375 C 22.25 -37.140625 21.890625 -33.851562 21.890625 -30.25 C 21.890625 -26.488281 22.25 -23.101562 22.96875 -20.09375 C 23.6875 -17.082031 24.703125 -14.519531 26.015625 -12.40625 C 27.328125 -10.300781 28.90625 -8.664062 30.75 -7.5 C 32.59375 -6.332031 34.679688 -5.75 37.015625 -5.75 C 39.347656 -5.75 41.472656 -6.332031 43.390625 -7.5 C 45.304688 -8.664062 46.941406 -10.320312 48.296875 -12.46875 C 49.648438 -14.613281 50.703125 -17.191406 51.453125 -20.203125 C 52.210938 -23.210938 52.59375 -26.5625 52.59375 -30.25 C 52.59375 -33.851562 52.210938 -37.125 51.453125 -40.0625 C 50.703125 -43 49.648438 -45.539062 48.296875 -47.6875 C 46.941406 -49.832031 45.304688 -51.484375 43.390625 -52.640625 C 41.472656 -53.804688 39.347656 -54.390625 37.015625 -54.390625 Z M 37.015625 -54.390625 "/></g></g></g><g fill="#fdf9f5" fill-opacity="1"><g transform="translate(168.766388, 109.828819)"><g><path d="M 29 -18.390625 C 29 -15.304688 29.09375 -12.878906 29.28125 -11.109375 C 29.46875 -9.347656 29.878906 -7.992188 30.515625 -7.046875 C 31.160156 -6.109375 32.140625 -5.488281 33.453125 -5.1875 C 34.773438 -4.882812 36.566406 -4.660156 38.828125 -4.515625 L 38.828125 0 L 3.265625 0 L 3.265625 -4.515625 C 5.453125 -4.660156 7.203125 -4.882812 8.515625 -5.1875 C 9.835938 -5.488281 10.851562 -6.09375 11.5625 -7 C 12.28125 -7.90625 12.75 -9.179688 12.96875 -10.828125 C 13.195312 -12.484375 13.3125 -14.742188 13.3125 -17.609375 L 13.3125 -31.71875 C 13.3125 -36.15625 13.234375 -39.742188 13.078125 -42.484375 C 12.929688 -45.234375 12.75 -47.097656 12.53125 -48.078125 C 12.300781 -49.054688 12 -49.863281 11.625 -50.5 C 11.25 -51.144531 10.679688 -51.632812 9.921875 -51.96875 C 9.171875 -52.3125 8.234375 -52.535156 7.109375 -52.640625 C 5.984375 -52.753906 4.554688 -52.8125 2.828125 -52.8125 L 2.828125 -56.65625 L 24.609375 -60.9375 L 26.078125 -51.015625 L 26.515625 -51.015625 C 29.003906 -54.171875 31.941406 -56.613281 35.328125 -58.34375 C 38.710938 -60.070312 42.4375 -60.9375 46.5 -60.9375 C 51.3125 -60.9375 55.203125 -60.28125 58.171875 -58.96875 C 61.148438 -57.65625 63.804688 -55.453125 66.140625 -52.359375 C 67.410156 -50.628906 68.535156 -48.390625 69.515625 -45.640625 C 70.492188 -42.898438 70.984375 -39.125 70.984375 -34.3125 L 70.984375 -18.390625 C 70.984375 -15.304688 71.078125 -12.878906 71.265625 -11.109375 C 71.453125 -9.347656 71.863281 -7.992188 72.5 -7.046875 C 73.144531 -6.109375 74.109375 -5.488281 75.390625 -5.1875 C 76.671875 -4.882812 78.398438 -4.660156 80.578125 -4.515625 L 80.578125 0 L 45.25 0 L 45.25 -4.515625 C 47.507812 -4.585938 49.296875 -4.789062 50.609375 -5.125 C 51.929688 -5.46875 52.929688 -6.09375 53.609375 -7 C 54.285156 -7.90625 54.734375 -9.203125 54.953125 -10.890625 C 55.179688 -12.585938 55.296875 -14.828125 55.296875 -17.609375 L 55.296875 -32.953125 C 55.296875 -36.785156 55.070312 -40.019531 54.625 -42.65625 C 54.175781 -45.289062 53.441406 -47.414062 52.421875 -49.03125 C 51.410156 -50.65625 50.078125 -51.820312 48.421875 -52.53125 C 46.765625 -53.25 44.691406 -53.609375 42.203125 -53.609375 C 39.796875 -53.609375 37.726562 -52.929688 36 -51.578125 C 34.269531 -50.222656 32.765625 -48.34375 31.484375 -45.9375 C 30.804688 -44.582031 30.222656 -42.832031 29.734375 -40.6875 C 29.242188 -38.539062 29 -36.300781 29 -33.96875 Z M 29 -18.390625 "/></g></g></g><g fill="#fdf9f5" fill-opacity="1"><g transform="translate(250.795174, 109.828819)"><g><path d="M 29 -18.390625 C 29 -15.304688 29.09375 -12.878906 29.28125 -11.109375 C 29.46875 -9.347656 29.878906 -7.992188 30.515625 -7.046875 C 31.160156 -6.109375 32.140625 -5.488281 33.453125 -5.1875 C 34.773438 -4.882812 36.566406 -4.660156 38.828125 -4.515625 L 38.828125 0 L 3.265625 0 L 3.265625 -4.515625 C 5.453125 -4.660156 7.203125 -4.882812 8.515625 -5.1875 C 9.835938 -5.488281 10.851562 -6.09375 11.5625 -7 C 12.28125 -7.90625 12.75 -9.179688 12.96875 -10.828125 C 13.195312 -12.484375 13.3125 -14.742188 13.3125 -17.609375 L 13.3125 -31.71875 C 13.3125 -36.15625 13.234375 -39.742188 13.078125 -42.484375 C 12.929688 -45.234375 12.75 -47.097656 12.53125 -48.078125 C 12.300781 -49.054688 12 -49.863281 11.625 -50.5 C 11.25 -51.144531 10.679688 -51.632812 9.921875 -51.96875 C 9.171875 -52.3125 8.234375 -52.535156 7.109375 -52.640625 C 5.984375 -52.753906 4.554688 -52.8125 2.828125 -52.8125 L 2.828125 -56.65625 L 24.609375 -60.9375 L 26.078125 -51.015625 L 26.515625 -51.015625 C 29.003906 -54.171875 31.941406 -56.613281 35.328125 -58.34375 C 38.710938 -60.070312 42.4375 -60.9375 46.5 -60.9375 C 51.3125 -60.9375 55.203125 -60.28125 58.171875 -58.96875 C 61.148438 -57.65625 63.804688 -55.453125 66.140625 -52.359375 C 67.410156 -50.628906 68.535156 -48.390625 69.515625 -45.640625 C 70.492188 -42.898438 70.984375 -39.125 70.984375 -34.3125 L 70.984375 -18.390625 C 70.984375 -15.304688 71.078125 -12.878906 71.265625 -11.109375 C 71.453125 -9.347656 71.863281 -7.992188 72.5 -7.046875 C 73.144531 -6.109375 74.109375 -5.488281 75.390625 -5.1875 C 76.671875 -4.882812 78.398438 -4.660156 80.578125 -4.515625 L 80.578125 0 L 45.25 0 L 45.25 -4.515625 C 47.507812 -4.585938 49.296875 -4.789062 50.609375 -5.125 C 51.929688 -5.46875 52.929688 -6.09375 53.609375 -7 C 54.285156 -7.90625 54.734375 -9.203125 54.953125 -10.890625 C 55.179688 -12.585938 55.296875 -14.828125 55.296875 -17.609375 L 55.296875 -32.953125 C 55.296875 -36.785156 55.070312 -40.019531 54.625 -42.65625 C 54.175781 -45.289062 53.441406 -47.414062 52.421875 -49.03125 C 51.410156 -50.65625 50.078125 -51.820312 48.421875 -52.53125 C 46.765625 -53.25 44.691406 -53.609375 42.203125 -53.609375 C 39.796875 -53.609375 37.726562 -52.929688 36 -51.578125 C 34.269531 -50.222656 32.765625 -48.34375 31.484375 -45.9375 C 30.804688 -44.582031 30.222656 -42.832031 29.734375 -40.6875 C 29.242188 -38.539062 29 -36.300781 29 -33.96875 Z M 29 -18.390625 "/></g></g></g><g fill="#fdf9f5" fill-opacity="1"><g transform="translate(332.82396, 109.828819)"><g><path d="M 60.9375 -10.5 C 54.09375 -2.75 45.554688 1.125 35.328125 1.125 C 30.660156 1.125 26.425781 0.394531 22.625 -1.0625 C 18.820312 -2.53125 15.566406 -4.597656 12.859375 -7.265625 C 10.148438 -9.941406 8.039062 -13.125 6.53125 -16.8125 C 5.03125 -20.5 4.28125 -24.601562 4.28125 -29.125 C 4.28125 -33.78125 5.070312 -38.046875 6.65625 -41.921875 C 8.238281 -45.796875 10.476562 -49.144531 13.375 -51.96875 C 16.269531 -54.789062 19.691406 -56.988281 23.640625 -58.5625 C 27.585938 -60.144531 31.929688 -60.9375 36.671875 -60.9375 C 44.648438 -60.9375 50.859375 -58.789062 55.296875 -54.5 C 59.734375 -50.21875 61.953125 -44.203125 61.953125 -36.453125 C 61.953125 -35.242188 61.765625 -34.507812 61.390625 -34.25 C 61.015625 -33.988281 59.960938 -33.859375 58.234375 -33.859375 L 21.890625 -33.859375 C 21.585938 -33.179688 21.4375 -31.941406 21.4375 -30.140625 C 21.4375 -22.765625 23.035156 -16.929688 26.234375 -12.640625 C 29.429688 -8.347656 33.78125 -6.203125 39.28125 -6.203125 C 42.4375 -6.203125 45.570312 -6.914062 48.6875 -8.34375 C 51.8125 -9.78125 54.84375 -11.816406 57.78125 -14.453125 Z M 39.046875 -40.171875 C 42.054688 -40.171875 43.992188 -40.335938 44.859375 -40.671875 C 45.722656 -41.015625 46.15625 -41.828125 46.15625 -43.109375 C 46.15625 -46.421875 45.210938 -49.128906 43.328125 -51.234375 C 41.453125 -53.335938 39.085938 -54.390625 36.234375 -54.390625 C 32.992188 -54.390625 30.113281 -53.054688 27.59375 -50.390625 C 25.070312 -47.722656 23.4375 -44.316406 22.6875 -40.171875 Z M 39.046875 -40.171875 "/></g></g></g><g fill="#fdf9f5" fill-opacity="1"><g transform="translate(398.83062, 109.828819)"><g><path d="M 59.59375 -9.375 C 56.726562 -6.207031 53.171875 -3.757812 48.921875 -2.03125 C 44.671875 -0.300781 40.0625 0.5625 35.09375 0.5625 C 30.507812 0.5625 26.332031 -0.171875 22.5625 -1.640625 C 18.800781 -3.109375 15.566406 -5.15625 12.859375 -7.78125 C 10.148438 -10.414062 8.0625 -13.59375 6.59375 -17.3125 C 5.132812 -21.039062 4.40625 -25.164062 4.40625 -29.6875 C 4.40625 -34.34375 5.191406 -38.585938 6.765625 -42.421875 C 8.347656 -46.265625 10.566406 -49.5625 13.421875 -52.3125 C 16.285156 -55.0625 19.710938 -57.1875 23.703125 -58.6875 C 27.691406 -60.1875 32.09375 -60.9375 36.90625 -60.9375 C 40.289062 -60.9375 43.429688 -60.597656 46.328125 -59.921875 C 49.222656 -59.242188 51.703125 -58.300781 53.765625 -57.09375 C 55.835938 -55.894531 57.476562 -54.488281 58.6875 -52.875 C 59.894531 -51.257812 60.5 -49.507812 60.5 -47.625 C 60.5 -45.445312 59.875 -43.71875 58.625 -42.4375 C 57.382812 -41.15625 55.710938 -40.515625 53.609375 -40.515625 C 51.878906 -40.515625 50.351562 -40.960938 49.03125 -41.859375 C 47.71875 -42.765625 46.421875 -44.234375 45.140625 -46.265625 C 44.015625 -48.078125 43.054688 -49.507812 42.265625 -50.5625 C 41.472656 -51.613281 40.738281 -52.421875 40.0625 -52.984375 C 39.382812 -53.546875 38.707031 -53.921875 38.03125 -54.109375 C 37.351562 -54.296875 36.523438 -54.390625 35.546875 -54.390625 C 31.179688 -54.390625 27.796875 -52.359375 25.390625 -48.296875 C 22.984375 -44.234375 21.78125 -38.554688 21.78125 -31.265625 C 21.78125 -23.441406 23.226562 -17.421875 26.125 -13.203125 C 29.019531 -8.992188 33.175781 -6.890625 38.59375 -6.890625 C 41.675781 -6.890625 44.757812 -7.472656 47.84375 -8.640625 C 50.9375 -9.804688 53.875 -11.476562 56.65625 -13.65625 Z M 59.59375 -9.375 "/></g></g></g><g fill="#fdf9f5" fill-opacity="1"><g transform="translate(462.467805, 109.828819)"><g><path d="M 2.828125 -53.609375 L 2.828125 -58.6875 C 7.335938 -59.96875 11.113281 -61.90625 14.15625 -64.5 C 17.207031 -67.09375 19.484375 -70.082031 20.984375 -73.46875 L 26.75 -73.46875 L 26.75 -59.8125 L 39.71875 -59.8125 L 39.71875 -53.609375 L 26.75 -53.609375 L 26.75 -18.953125 C 26.75 -14.296875 27.253906 -10.988281 28.265625 -9.03125 C 29.285156 -7.070312 31 -6.09375 33.40625 -6.09375 C 36.34375 -6.09375 38.5625 -7.445312 40.0625 -10.15625 L 42.4375 -6.890625 C 40.332031 -1.546875 35.363281 1.125 27.53125 1.125 C 22.34375 1.125 18.300781 -0.078125 15.40625 -2.484375 C 12.507812 -4.890625 11.0625 -8.273438 11.0625 -12.640625 L 11.0625 -53.609375 Z M 2.828125 -53.609375 "/></g></g></g><g fill="#fdf9f5" fill-opacity="1"><g transform="translate(505.569598, 109.828819)"><g><path d="M 29 -18.515625 C 29 -15.503906 29.113281 -13.09375 29.34375 -11.28125 C 29.570312 -9.476562 30.023438 -8.085938 30.703125 -7.109375 C 31.378906 -6.128906 32.351562 -5.46875 33.625 -5.125 C 34.90625 -4.789062 36.640625 -4.585938 38.828125 -4.515625 L 38.828125 0 L 3.265625 0 L 3.265625 -4.515625 C 5.378906 -4.585938 7.09375 -4.832031 8.40625 -5.25 C 9.726562 -5.664062 10.742188 -6.34375 11.453125 -7.28125 C 12.171875 -8.21875 12.660156 -9.53125 12.921875 -11.21875 C 13.179688 -12.914062 13.3125 -15.082031 13.3125 -17.71875 L 13.3125 -31.59375 C 13.3125 -35.957031 13.234375 -39.550781 13.078125 -42.375 C 12.929688 -45.195312 12.75 -47.132812 12.53125 -48.1875 C 12.15625 -50.070312 11.304688 -51.3125 9.984375 -51.90625 C 8.671875 -52.507812 6.285156 -52.8125 2.828125 -52.8125 L 2.828125 -56.65625 L 29 -60.9375 Z M 12.421875 -84.875 C 12.421875 -87.351562 13.265625 -89.4375 14.953125 -91.125 C 16.648438 -92.820312 18.703125 -93.671875 21.109375 -93.671875 C 23.585938 -93.671875 25.671875 -92.820312 27.359375 -91.125 C 29.054688 -89.4375 29.90625 -87.351562 29.90625 -84.875 C 29.90625 -82.46875 29.054688 -80.414062 27.359375 -78.71875 C 25.671875 -77.03125 23.585938 -76.1875 21.109375 -76.1875 C 18.703125 -76.1875 16.648438 -77.03125 14.953125 -78.71875 C 13.265625 -80.414062 12.421875 -82.46875 12.421875 -84.875 Z M 12.421875 -84.875 "/></g></g></g><g fill="#fdf9f5" fill-opacity="1"><g transform="translate(546.301945, 109.828819)"><g><path d="M 37.015625 -60.9375 C 41.535156 -60.9375 45.804688 -60.164062 49.828125 -58.625 C 53.847656 -57.082031 57.378906 -54.957031 60.421875 -52.25 C 63.472656 -49.539062 65.882812 -46.320312 67.65625 -42.59375 C 69.425781 -38.875 70.3125 -34.796875 70.3125 -30.359375 C 70.3125 -25.765625 69.425781 -21.550781 67.65625 -17.71875 C 65.882812 -13.882812 63.472656 -10.570312 60.421875 -7.78125 C 57.378906 -5 53.847656 -2.816406 49.828125 -1.234375 C 45.804688 0.335938 41.535156 1.125 37.015625 1.125 C 32.578125 1.125 28.363281 0.351562 24.375 -1.1875 C 20.382812 -2.726562 16.882812 -4.890625 13.875 -7.671875 C 10.875 -10.453125 8.503906 -13.78125 6.765625 -17.65625 C 5.035156 -21.53125 4.171875 -25.765625 4.171875 -30.359375 C 4.171875 -34.796875 5.035156 -38.894531 6.765625 -42.65625 C 8.503906 -46.414062 10.875 -49.648438 13.875 -52.359375 C 16.882812 -55.078125 20.382812 -57.1875 24.375 -58.6875 C 28.363281 -60.1875 32.578125 -60.9375 37.015625 -60.9375 Z M 37.015625 -54.390625 C 34.753906 -54.390625 32.679688 -53.804688 30.796875 -52.640625 C 28.921875 -51.484375 27.328125 -49.847656 26.015625 -47.734375 C 24.703125 -45.628906 23.6875 -43.085938 22.96875 -40.109375 C 22.25 -37.140625 21.890625 -33.851562 21.890625 -30.25 C 21.890625 -26.488281 22.25 -23.101562 22.96875 -20.09375 C 23.6875 -17.082031 24.703125 -14.519531 26.015625 -12.40625 C 27.328125 -10.300781 28.90625 -8.664062 30.75 -7.5 C 32.59375 -6.332031 34.679688 -5.75 37.015625 -5.75 C 39.347656 -5.75 41.472656 -6.332031 43.390625 -7.5 C 45.304688 -8.664062 46.941406 -10.320312 48.296875 -12.46875 C 49.648438 -14.613281 50.703125 -17.191406 51.453125 -20.203125 C 52.210938 -23.210938 52.59375 -26.5625 52.59375 -30.25 C 52.59375 -33.851562 52.210938 -37.125 51.453125 -40.0625 C 50.703125 -43 49.648438 -45.539062 48.296875 -47.6875 C 46.941406 -49.832031 45.304688 -51.484375 43.390625 -52.640625 C 41.472656 -53.804688 39.347656 -54.390625 37.015625 -54.390625 Z M 37.015625 -54.390625 "/></g></g></g><g fill="#fdf9f5" fill-opacity="1"><g transform="translate(620.770962, 109.828819)"><g><path d="M 29 -18.390625 C 29 -15.304688 29.09375 -12.878906 29.28125 -11.109375 C 29.46875 -9.347656 29.878906 -7.992188 30.515625 -7.046875 C 31.160156 -6.109375 32.140625 -5.488281 33.453125 -5.1875 C 34.773438 -4.882812 36.566406 -4.660156 38.828125 -4.515625 L 38.828125 0 L 3.265625 0 L 3.265625 -4.515625 C 5.453125 -4.660156 7.203125 -4.882812 8.515625 -5.1875 C 9.835938 -5.488281 10.851562 -6.09375 11.5625 -7 C 12.28125 -7.90625 12.75 -9.179688 12.96875 -10.828125 C 13.195312 -12.484375 13.3125 -14.742188 13.3125 -17.609375 L 13.3125 -31.71875 C 13.3125 -36.15625 13.234375 -39.742188 13.078125 -42.484375 C 12.929688 -45.234375 12.75 -47.097656 12.53125 -48.078125 C 12.300781 -49.054688 12 -49.863281 11.625 -50.5 C 11.25 -51.144531 10.679688 -51.632812 9.921875 -51.96875 C 9.171875 -52.3125 8.234375 -52.535156 7.109375 -52.640625 C 5.984375 -52.753906 4.554688 -52.8125 2.828125 -52.8125 L 2.828125 -56.65625 L 24.609375 -60.9375 L 26.078125 -51.015625 L 26.515625 -51.015625 C 29.003906 -54.171875 31.941406 -56.613281 35.328125 -58.34375 C 38.710938 -60.070312 42.4375 -60.9375 46.5 -60.9375 C 51.3125 -60.9375 55.203125 -60.28125 58.171875 -58.96875 C 61.148438 -57.65625 63.804688 -55.453125 66.140625 -52.359375 C 67.410156 -50.628906 68.535156 -48.390625 69.515625 -45.640625 C 70.492188 -42.898438 70.984375 -39.125 70.984375 -34.3125 L 70.984375 -18.390625 C 70.984375 -15.304688 71.078125 -12.878906 71.265625 -11.109375 C 71.453125 -9.347656 71.863281 -7.992188 72.5 -7.046875 C 73.144531 -6.109375 74.109375 -5.488281 75.390625 -5.1875 C 76.671875 -4.882812 78.398438 -4.660156 80.578125 -4.515625 L 80.578125 0 L 45.25 0 L 45.25 -4.515625 C 47.507812 -4.585938 49.296875 -4.789062 50.609375 -5.125 C 51.929688 -5.46875 52.929688 -6.09375 53.609375 -7 C 54.285156 -7.90625 54.734375 -9.203125 54.953125 -10.890625 C 55.179688 -12.585938 55.296875 -14.828125 55.296875 -17.609375 L 55.296875 -32.953125 C 55.296875 -36.785156 55.070312 -40.019531 54.625 -42.65625 C 54.175781 -45.289062 53.441406 -47.414062 52.421875 -49.03125 C 51.410156 -50.65625 50.078125 -51.820312 48.421875 -52.53125 C 46.765625 -53.25 44.691406 -53.609375 42.203125 -53.609375 C 39.796875 -53.609375 37.726562 -52.929688 36 -51.578125 C 34.269531 -50.222656 32.765625 -48.34375 31.484375 -45.9375 C 30.804688 -44.582031 30.222656 -42.832031 29.734375 -40.6875 C 29.242188 -38.539062 29 -36.300781 29 -33.96875 Z M 29 -18.390625 "/></g></g></g></g></g><path stroke-linecap="round" transform="matrix(0.749207, 0.000000000000000723, -0.000000000000000723, 0.749207, 422.157406, 174.110104)" fill="none" stroke-linejoin="miter" d="M 4.998534 4.999105 L 53.930471 4.999105 " stroke="#efa73a" stroke-width="10" stroke-opacity="1" stroke-miterlimit="4"/><path stroke-linecap="round" transform="matrix(0.613384, 0.430199, -0.430199, 0.613384, 452.462967, 130.116134)" fill="none" stroke-linejoin="miter" d="M 5.001459 5.002056 L 37.128844 5.000679 " stroke="#efa73a" stroke-width="10" stroke-opacity="1" stroke-miterlimit="4"/><path stroke-linecap="round" transform="matrix(0, 0.749207, -0.749207, 0, 501.106912, 97.466984)" fill="none" stroke-linejoin="miter" d="M 5.002435 5.002004 L 60.529886 5.002004 " stroke="#efa73a" stroke-width="10" stroke-opacity="1" stroke-miterlimit="4"/><g transform="matrix(1, 0, 0, 1, 145, 405)"><g clip-path="url(#5f6c3a99a2)"><g fill="#ce7e98" fill-opacity="1"><g transform="translate(2.107494, 34.48118)"><g><path d="M 2.03125 -8.234375 L 3.328125 -8.234375 C 3.492188 -7.179688 3.800781 -6.234375 4.25 -5.390625 C 4.707031 -4.554688 5.28125 -3.847656 5.96875 -3.265625 C 6.664062 -2.679688 7.460938 -2.226562 8.359375 -1.90625 C 9.253906 -1.59375 10.226562 -1.4375 11.28125 -1.4375 C 13.007812 -1.4375 14.375 -1.84375 15.375 -2.65625 C 16.382812 -3.476562 16.890625 -4.59375 16.890625 -6 C 16.890625 -6.582031 16.789062 -7.117188 16.59375 -7.609375 C 16.394531 -8.097656 16.0625 -8.566406 15.59375 -9.015625 C 15.125 -9.472656 14.5 -9.925781 13.71875 -10.375 C 12.9375 -10.820312 11.953125 -11.300781 10.765625 -11.8125 C 9.316406 -12.4375 8.097656 -13.039062 7.109375 -13.625 C 6.128906 -14.21875 5.347656 -14.828125 4.765625 -15.453125 C 4.179688 -16.085938 3.765625 -16.757812 3.515625 -17.46875 C 3.273438 -18.1875 3.15625 -19 3.15625 -19.90625 C 3.15625 -20.976562 3.347656 -21.96875 3.734375 -22.875 C 4.117188 -23.789062 4.660156 -24.582031 5.359375 -25.25 C 6.054688 -25.914062 6.882812 -26.429688 7.84375 -26.796875 C 8.800781 -27.160156 9.851562 -27.34375 11 -27.34375 C 12.03125 -27.34375 12.988281 -27.175781 13.875 -26.84375 C 14.757812 -26.519531 15.660156 -25.992188 16.578125 -25.265625 L 17.484375 -26.84375 L 18.296875 -26.84375 L 18.6875 -19.875 L 17.390625 -19.875 C 16.828125 -21.789062 16.015625 -23.210938 14.953125 -24.140625 C 13.890625 -25.078125 12.609375 -25.546875 11.109375 -25.546875 C 9.679688 -25.546875 8.546875 -25.195312 7.703125 -24.5 C 6.867188 -23.800781 6.453125 -22.851562 6.453125 -21.65625 C 6.453125 -21.09375 6.546875 -20.582031 6.734375 -20.125 C 6.921875 -19.675781 7.222656 -19.242188 7.640625 -18.828125 C 8.054688 -18.421875 8.601562 -18.015625 9.28125 -17.609375 C 9.957031 -17.203125 10.800781 -16.773438 11.8125 -16.328125 C 13.539062 -15.554688 14.976562 -14.835938 16.125 -14.171875 C 17.269531 -13.503906 18.179688 -12.835938 18.859375 -12.171875 C 19.535156 -11.515625 20.015625 -10.816406 20.296875 -10.078125 C 20.578125 -9.335938 20.71875 -8.515625 20.71875 -7.609375 C 20.71875 -6.441406 20.484375 -5.363281 20.015625 -4.375 C 19.546875 -3.394531 18.890625 -2.554688 18.046875 -1.859375 C 17.203125 -1.160156 16.195312 -0.617188 15.03125 -0.234375 C 13.863281 0.148438 12.582031 0.34375 11.1875 0.34375 C 9.851562 0.34375 8.65625 0.160156 7.59375 -0.203125 C 6.53125 -0.578125 5.445312 -1.210938 4.34375 -2.109375 L 3.359375 -0.390625 L 2.5625 -0.390625 Z M 2.03125 -8.234375 "/></g></g></g><g fill="#ce7e98" fill-opacity="1"><g transform="translate(24.704369, 34.48118)"><g><path d="M 7.75 -5.609375 C 7.75 -4.628906 7.769531 -3.859375 7.8125 -3.296875 C 7.863281 -2.734375 7.988281 -2.304688 8.1875 -2.015625 C 8.382812 -1.722656 8.671875 -1.53125 9.046875 -1.4375 C 9.421875 -1.34375 9.945312 -1.273438 10.625 -1.234375 L 10.625 0 L 1.296875 0 L 1.296875 -1.234375 C 1.972656 -1.273438 2.507812 -1.34375 2.90625 -1.4375 C 3.300781 -1.53125 3.601562 -1.71875 3.8125 -2 C 4.03125 -2.28125 4.164062 -2.679688 4.21875 -3.203125 C 4.28125 -3.734375 4.3125 -4.441406 4.3125 -5.328125 L 4.3125 -9.8125 C 4.3125 -11.144531 4.289062 -12.253906 4.25 -13.140625 C 4.21875 -14.023438 4.15625 -14.632812 4.0625 -14.96875 C 3.988281 -15.269531 3.90625 -15.507812 3.8125 -15.6875 C 3.726562 -15.863281 3.578125 -16.003906 3.359375 -16.109375 C 3.148438 -16.210938 2.875 -16.28125 2.53125 -16.3125 C 2.195312 -16.34375 1.765625 -16.359375 1.234375 -16.359375 L 1.234375 -17.59375 L 6.9375 -18.921875 L 7.390625 -15.421875 L 7.5625 -15.421875 C 8.613281 -16.609375 9.71875 -17.488281 10.875 -18.0625 C 12.03125 -18.632812 13.3125 -18.921875 14.71875 -18.921875 C 16.1875 -18.921875 17.421875 -18.625 18.421875 -18.03125 C 19.429688 -17.4375 20.132812 -16.578125 20.53125 -15.453125 L 20.671875 -15.453125 C 21.535156 -16.554688 22.585938 -17.410156 23.828125 -18.015625 C 25.066406 -18.617188 26.390625 -18.921875 27.796875 -18.921875 C 28.890625 -18.921875 29.882812 -18.738281 30.78125 -18.375 C 31.6875 -18.019531 32.375 -17.523438 32.84375 -16.890625 C 33.257812 -16.359375 33.554688 -15.648438 33.734375 -14.765625 C 33.910156 -13.890625 34 -12.695312 34 -11.1875 L 34 -5.609375 C 34 -4.648438 34.023438 -3.890625 34.078125 -3.328125 C 34.140625 -2.765625 34.265625 -2.332031 34.453125 -2.03125 C 34.640625 -1.726562 34.925781 -1.53125 35.3125 -1.4375 C 35.695312 -1.34375 36.226562 -1.273438 36.90625 -1.234375 L 36.90625 0 L 27.578125 0 L 27.578125 -1.234375 C 28.234375 -1.253906 28.757812 -1.316406 29.15625 -1.421875 C 29.550781 -1.523438 29.851562 -1.722656 30.0625 -2.015625 C 30.28125 -2.304688 30.414062 -2.707031 30.46875 -3.21875 C 30.53125 -3.738281 30.5625 -4.441406 30.5625 -5.328125 L 30.5625 -9.75 C 30.5625 -11.070312 30.488281 -12.195312 30.34375 -13.125 C 30.207031 -14.050781 29.972656 -14.800781 29.640625 -15.375 C 29.316406 -15.945312 28.890625 -16.359375 28.359375 -16.609375 C 27.835938 -16.867188 27.203125 -17 26.453125 -17 C 25.429688 -17 24.46875 -16.710938 23.5625 -16.140625 C 22.664062 -15.566406 21.960938 -14.800781 21.453125 -13.84375 C 21.328125 -13.613281 21.222656 -13.382812 21.140625 -13.15625 C 21.066406 -12.9375 21.003906 -12.691406 20.953125 -12.421875 C 20.910156 -12.148438 20.882812 -11.828125 20.875 -11.453125 C 20.863281 -11.085938 20.859375 -10.625 20.859375 -10.0625 L 20.859375 -5.609375 C 20.859375 -4.648438 20.878906 -3.890625 20.921875 -3.328125 C 20.972656 -2.765625 21.097656 -2.332031 21.296875 -2.03125 C 21.492188 -1.726562 21.789062 -1.53125 22.1875 -1.4375 C 22.582031 -1.34375 23.117188 -1.273438 23.796875 -1.234375 L 23.796875 0 L 14.46875 0 L 14.46875 -1.234375 C 15.125 -1.273438 15.648438 -1.34375 16.046875 -1.4375 C 16.441406 -1.53125 16.738281 -1.71875 16.9375 -2 C 17.144531 -2.28125 17.273438 -2.679688 17.328125 -3.203125 C 17.390625 -3.734375 17.421875 -4.441406 17.421875 -5.328125 L 17.421875 -9.75 C 17.421875 -11.101562 17.347656 -12.238281 17.203125 -13.15625 C 17.066406 -14.082031 16.835938 -14.832031 16.515625 -15.40625 C 16.203125 -15.976562 15.789062 -16.382812 15.28125 -16.625 C 14.769531 -16.875 14.140625 -17 13.390625 -17 C 12.335938 -17 11.347656 -16.710938 10.421875 -16.140625 C 9.503906 -15.566406 8.8125 -14.800781 8.34375 -13.84375 C 8.226562 -13.613281 8.128906 -13.382812 8.046875 -13.15625 C 7.960938 -12.9375 7.894531 -12.691406 7.84375 -12.421875 C 7.800781 -12.148438 7.773438 -11.828125 7.765625 -11.453125 C 7.753906 -11.085938 7.75 -10.625 7.75 -10.0625 Z M 7.75 -5.609375 "/></g></g></g><g fill="#ce7e98" fill-opacity="1"><g transform="translate(62.295772, 34.48118)"><g><path d="M 12.234375 -10.375 C 10.898438 -9.863281 9.769531 -9.359375 8.84375 -8.859375 C 7.925781 -8.367188 7.1875 -7.878906 6.625 -7.390625 C 6.0625 -6.898438 5.65625 -6.410156 5.40625 -5.921875 C 5.164062 -5.429688 5.046875 -4.929688 5.046875 -4.421875 C 5.046875 -3.648438 5.300781 -3.015625 5.8125 -2.515625 C 6.332031 -2.023438 7.007812 -1.78125 7.84375 -1.78125 C 8.457031 -1.78125 9.023438 -1.929688 9.546875 -2.234375 C 10.078125 -2.546875 10.539062 -2.960938 10.9375 -3.484375 C 11.332031 -4.015625 11.644531 -4.632812 11.875 -5.34375 C 12.113281 -6.050781 12.234375 -6.804688 12.234375 -7.609375 Z M 12.234375 -11.875 L 12.234375 -13.3125 C 12.234375 -16.164062 11.019531 -17.59375 8.59375 -17.59375 C 8.1875 -17.59375 7.84375 -17.554688 7.5625 -17.484375 C 7.289062 -17.421875 7.0625 -17.304688 6.875 -17.140625 C 6.6875 -16.972656 6.515625 -16.738281 6.359375 -16.4375 C 6.210938 -16.132812 6.066406 -15.757812 5.921875 -15.3125 C 5.660156 -14.632812 5.40625 -14.1875 5.15625 -13.96875 C 4.914062 -13.75 4.5625 -13.640625 4.09375 -13.640625 C 2.925781 -13.640625 2.34375 -14.222656 2.34375 -15.390625 C 2.34375 -16.503906 2.9375 -17.367188 4.125 -17.984375 C 5.320312 -18.609375 7.019531 -18.921875 9.21875 -18.921875 C 11.550781 -18.921875 13.207031 -18.503906 14.1875 -17.671875 C 15.175781 -16.847656 15.671875 -15.441406 15.671875 -13.453125 L 15.671875 -5.609375 C 15.671875 -2.941406 16.195312 -1.609375 17.25 -1.609375 C 17.570312 -1.609375 17.882812 -1.648438 18.1875 -1.734375 C 18.488281 -1.816406 18.742188 -2.035156 18.953125 -2.390625 L 19.453125 -1.546875 C 19.171875 -1.003906 18.65625 -0.550781 17.90625 -0.1875 C 17.15625 0.164062 16.375 0.34375 15.5625 0.34375 C 14.53125 0.34375 13.765625 0.0195312 13.265625 -0.625 C 12.765625 -1.28125 12.515625 -2.207031 12.515625 -3.40625 L 12.34375 -3.40625 C 11.726562 -2.257812 10.882812 -1.351562 9.8125 -0.6875 C 8.738281 -0.0195312 7.546875 0.3125 6.234375 0.3125 C 4.765625 0.3125 3.609375 -0.0546875 2.765625 -0.796875 C 1.921875 -1.546875 1.5 -2.550781 1.5 -3.8125 C 1.5 -4.375 1.597656 -4.910156 1.796875 -5.421875 C 2.003906 -5.941406 2.328125 -6.4375 2.765625 -6.90625 C 3.210938 -7.375 3.796875 -7.832031 4.515625 -8.28125 C 5.242188 -8.738281 6.132812 -9.203125 7.1875 -9.671875 Z M 12.234375 -11.875 "/></g></g></g><g fill="#ce7e98" fill-opacity="1"><g transform="translate(81.704559, 34.48118)"><g><path d="M 7.78125 -5.578125 C 7.78125 -4.617188 7.800781 -3.859375 7.84375 -3.296875 C 7.894531 -2.734375 8.019531 -2.304688 8.21875 -2.015625 C 8.414062 -1.722656 8.703125 -1.53125 9.078125 -1.4375 C 9.453125 -1.34375 9.976562 -1.273438 10.65625 -1.234375 L 10.65625 0 L 1.328125 0 L 1.328125 -1.234375 C 2.003906 -1.253906 2.539062 -1.316406 2.9375 -1.421875 C 3.34375 -1.523438 3.648438 -1.71875 3.859375 -2 C 4.066406 -2.28125 4.195312 -2.679688 4.25 -3.203125 C 4.3125 -3.734375 4.34375 -4.441406 4.34375 -5.328125 L 4.34375 -9.421875 C 4.34375 -11.015625 4.320312 -12.253906 4.28125 -13.140625 C 4.25 -14.023438 4.132812 -14.675781 3.9375 -15.09375 C 3.738281 -15.519531 3.429688 -15.773438 3.015625 -15.859375 C 2.597656 -15.941406 2.015625 -15.984375 1.265625 -15.984375 L 1.265625 -17.203125 L 7.390625 -18.546875 L 7.890625 -14.1875 L 8.03125 -14.1875 C 8.332031 -14.894531 8.707031 -15.539062 9.15625 -16.125 C 9.613281 -16.707031 10.109375 -17.203125 10.640625 -17.609375 C 11.179688 -18.015625 11.742188 -18.332031 12.328125 -18.5625 C 12.921875 -18.800781 13.519531 -18.921875 14.125 -18.921875 C 14.875 -18.921875 15.460938 -18.738281 15.890625 -18.375 C 16.328125 -18.019531 16.546875 -17.535156 16.546875 -16.921875 C 16.546875 -16.367188 16.367188 -15.929688 16.015625 -15.609375 C 15.660156 -15.296875 15.160156 -15.140625 14.515625 -15.140625 C 14.140625 -15.140625 13.820312 -15.1875 13.5625 -15.28125 C 13.300781 -15.375 13.070312 -15.472656 12.875 -15.578125 C 12.675781 -15.679688 12.488281 -15.78125 12.3125 -15.875 C 12.144531 -15.96875 11.953125 -16.015625 11.734375 -16.015625 C 11.109375 -16.015625 10.476562 -15.609375 9.84375 -14.796875 C 9.21875 -13.992188 8.726562 -12.972656 8.375 -11.734375 C 8.1875 -11.054688 8.039062 -10.289062 7.9375 -9.4375 C 7.832031 -8.59375 7.78125 -7.703125 7.78125 -6.765625 Z M 7.78125 -5.578125 "/></g></g></g><g fill="#ce7e98" fill-opacity="1"><g transform="translate(98.415756, 34.48118)"><g><path d="M 1.40625 -16.359375 L 1.40625 -17.65625 C 2.644531 -18.382812 3.613281 -19.109375 4.3125 -19.828125 C 5.007812 -20.554688 5.546875 -21.425781 5.921875 -22.4375 L 6.9375 -22.4375 L 6.9375 -18.015625 L 11.640625 -18.015625 L 11.640625 -16.359375 L 6.9375 -16.359375 L 6.9375 -5.71875 C 6.9375 -4.894531 6.976562 -4.203125 7.0625 -3.640625 C 7.144531 -3.078125 7.28125 -2.625 7.46875 -2.28125 C 7.65625 -1.945312 7.898438 -1.707031 8.203125 -1.5625 C 8.503906 -1.425781 8.890625 -1.359375 9.359375 -1.359375 C 9.941406 -1.359375 10.4375 -1.484375 10.84375 -1.734375 C 11.25 -1.984375 11.65625 -2.398438 12.0625 -2.984375 L 12.9375 -2.3125 C 12.601562 -1.445312 12.03125 -0.785156 11.21875 -0.328125 C 10.414062 0.117188 9.421875 0.34375 8.234375 0.34375 C 6.691406 0.34375 5.515625 -0.0195312 4.703125 -0.75 C 3.898438 -1.488281 3.5 -2.546875 3.5 -3.921875 L 3.5 -16.359375 Z M 1.40625 -16.359375 "/></g></g></g><g fill="#ce7e98" fill-opacity="1"><g transform="translate(111.658573, 34.48118)"><g/></g></g><g fill="#ce7e98" fill-opacity="1"><g transform="translate(121.7133, 34.48118)"><g><path d="M 19.28125 -6.265625 L 28.390625 -26.984375 L 36.234375 -26.984375 L 36.234375 -25.65625 C 35.484375 -25.632812 34.878906 -25.539062 34.421875 -25.375 C 33.972656 -25.207031 33.625 -24.929688 33.375 -24.546875 C 33.132812 -24.160156 32.972656 -23.628906 32.890625 -22.953125 C 32.804688 -22.273438 32.765625 -21.410156 32.765625 -20.359375 L 32.765625 -6.625 C 32.765625 -5.457031 32.8125 -4.535156 32.90625 -3.859375 C 33 -3.179688 33.179688 -2.65625 33.453125 -2.28125 C 33.722656 -1.90625 34.109375 -1.65625 34.609375 -1.53125 C 35.109375 -1.414062 35.769531 -1.347656 36.59375 -1.328125 L 36.59375 0 L 25.234375 0 L 25.234375 -1.328125 C 26.046875 -1.347656 26.703125 -1.421875 27.203125 -1.546875 C 27.710938 -1.679688 28.109375 -1.921875 28.390625 -2.265625 C 28.671875 -2.617188 28.859375 -3.117188 28.953125 -3.765625 C 29.046875 -4.410156 29.09375 -5.28125 29.09375 -6.375 L 29.09375 -22.640625 L 28.734375 -22.640625 L 18.5 0.34375 L 17.734375 0.34375 L 7.671875 -22.640625 L 7.53125 -22.640625 L 7.53125 -6.625 C 7.53125 -5.457031 7.578125 -4.535156 7.671875 -3.859375 C 7.765625 -3.179688 7.945312 -2.65625 8.21875 -2.28125 C 8.488281 -1.90625 8.875 -1.65625 9.375 -1.53125 C 9.875 -1.414062 10.535156 -1.347656 11.359375 -1.328125 L 11.359375 0 L 1.578125 0 L 1.578125 -1.328125 C 2.390625 -1.347656 3.046875 -1.421875 3.546875 -1.546875 C 4.054688 -1.679688 4.453125 -1.921875 4.734375 -2.265625 C 5.015625 -2.617188 5.203125 -3.117188 5.296875 -3.765625 C 5.390625 -4.410156 5.4375 -5.28125 5.4375 -6.375 L 5.4375 -20.609375 C 5.4375 -21.585938 5.394531 -22.394531 5.3125 -23.03125 C 5.226562 -23.675781 5.0625 -24.1875 4.8125 -24.5625 C 4.570312 -24.9375 4.21875 -25.195312 3.75 -25.34375 C 3.28125 -25.5 2.671875 -25.601562 1.921875 -25.65625 L 1.921875 -26.984375 L 10.296875 -26.984375 L 19.140625 -6.265625 Z M 19.28125 -6.265625 "/></g></g></g><g fill="#ce7e98" fill-opacity="1"><g transform="translate(159.900287, 34.48118)"><g><path d="M 12.234375 -10.375 C 10.898438 -9.863281 9.769531 -9.359375 8.84375 -8.859375 C 7.925781 -8.367188 7.1875 -7.878906 6.625 -7.390625 C 6.0625 -6.898438 5.65625 -6.410156 5.40625 -5.921875 C 5.164062 -5.429688 5.046875 -4.929688 5.046875 -4.421875 C 5.046875 -3.648438 5.300781 -3.015625 5.8125 -2.515625 C 6.332031 -2.023438 7.007812 -1.78125 7.84375 -1.78125 C 8.457031 -1.78125 9.023438 -1.929688 9.546875 -2.234375 C 10.078125 -2.546875 10.539062 -2.960938 10.9375 -3.484375 C 11.332031 -4.015625 11.644531 -4.632812 11.875 -5.34375 C 12.113281 -6.050781 12.234375 -6.804688 12.234375 -7.609375 Z M 12.234375 -11.875 L 12.234375 -13.3125 C 12.234375 -16.164062 11.019531 -17.59375 8.59375 -17.59375 C 8.1875 -17.59375 7.84375 -17.554688 7.5625 -17.484375 C 7.289062 -17.421875 7.0625 -17.304688 6.875 -17.140625 C 6.6875 -16.972656 6.515625 -16.738281 6.359375 -16.4375 C 6.210938 -16.132812 6.066406 -15.757812 5.921875 -15.3125 C 5.660156 -14.632812 5.40625 -14.1875 5.15625 -13.96875 C 4.914062 -13.75 4.5625 -13.640625 4.09375 -13.640625 C 2.925781 -13.640625 2.34375 -14.222656 2.34375 -15.390625 C 2.34375 -16.503906 2.9375 -17.367188 4.125 -17.984375 C 5.320312 -18.609375 7.019531 -18.921875 9.21875 -18.921875 C 11.550781 -18.921875 13.207031 -18.503906 14.1875 -17.671875 C 15.175781 -16.847656 15.671875 -15.441406 15.671875 -13.453125 L 15.671875 -5.609375 C 15.671875 -2.941406 16.195312 -1.609375 17.25 -1.609375 C 17.570312 -1.609375 17.882812 -1.648438 18.1875 -1.734375 C 18.488281 -1.816406 18.742188 -2.035156 18.953125 -2.390625 L 19.453125 -1.546875 C 19.171875 -1.003906 18.65625 -0.550781 17.90625 -0.1875 C 17.15625 0.164062 16.375 0.34375 15.5625 0.34375 C 14.53125 0.34375 13.765625 0.0195312 13.265625 -0.625 C 12.765625 -1.28125 12.515625 -2.207031 12.515625 -3.40625 L 12.34375 -3.40625 C 11.726562 -2.257812 10.882812 -1.351562 9.8125 -0.6875 C 8.738281 -0.0195312 7.546875 0.3125 6.234375 0.3125 C 4.765625 0.3125 3.609375 -0.0546875 2.765625 -0.796875 C 1.921875 -1.546875 1.5 -2.550781 1.5 -3.8125 C 1.5 -4.375 1.597656 -4.910156 1.796875 -5.421875 C 2.003906 -5.941406 2.328125 -6.4375 2.765625 -6.90625 C 3.210938 -7.375 3.796875 -7.832031 4.515625 -8.28125 C 5.242188 -8.738281 6.132812 -9.203125 7.1875 -9.671875 Z M 12.234375 -11.875 "/></g></g></g><g fill="#ce7e98" fill-opacity="1"><g transform="translate(179.309074, 34.48118)"><g><path d="M 1.40625 -16.359375 L 1.40625 -17.65625 C 2.644531 -18.382812 3.613281 -19.109375 4.3125 -19.828125 C 5.007812 -20.554688 5.546875 -21.425781 5.921875 -22.4375 L 6.9375 -22.4375 L 6.9375 -18.015625 L 11.640625 -18.015625 L 11.640625 -16.359375 L 6.9375 -16.359375 L 6.9375 -5.71875 C 6.9375 -4.894531 6.976562 -4.203125 7.0625 -3.640625 C 7.144531 -3.078125 7.28125 -2.625 7.46875 -2.28125 C 7.65625 -1.945312 7.898438 -1.707031 8.203125 -1.5625 C 8.503906 -1.425781 8.890625 -1.359375 9.359375 -1.359375 C 9.941406 -1.359375 10.4375 -1.484375 10.84375 -1.734375 C 11.25 -1.984375 11.65625 -2.398438 12.0625 -2.984375 L 12.9375 -2.3125 C 12.601562 -1.445312 12.03125 -0.785156 11.21875 -0.328125 C 10.414062 0.117188 9.421875 0.34375 8.234375 0.34375 C 6.691406 0.34375 5.515625 -0.0195312 4.703125 -0.75 C 3.898438 -1.488281 3.5 -2.546875 3.5 -3.921875 L 3.5 -16.359375 Z M 1.40625 -16.359375 "/></g></g></g><g fill="#ce7e98" fill-opacity="1"><g transform="translate(192.55189, 34.48118)"><g><path d="M 17.734375 -2.90625 C 16.890625 -1.875 15.800781 -1.070312 14.46875 -0.5 C 13.144531 0.0625 11.707031 0.34375 10.15625 0.34375 C 8.925781 0.34375 7.789062 0.117188 6.75 -0.328125 C 5.707031 -0.785156 4.8125 -1.425781 4.0625 -2.25 C 3.3125 -3.082031 2.734375 -4.082031 2.328125 -5.25 C 1.921875 -6.425781 1.71875 -7.722656 1.71875 -9.140625 C 1.71875 -10.640625 1.953125 -11.988281 2.421875 -13.1875 C 2.890625 -14.394531 3.546875 -15.425781 4.390625 -16.28125 C 5.242188 -17.132812 6.269531 -17.785156 7.46875 -18.234375 C 8.675781 -18.691406 10.003906 -18.921875 11.453125 -18.921875 C 12.367188 -18.921875 13.195312 -18.84375 13.9375 -18.6875 C 14.6875 -18.539062 15.335938 -18.332031 15.890625 -18.0625 C 16.441406 -17.789062 16.867188 -17.460938 17.171875 -17.078125 C 17.472656 -16.691406 17.625 -16.28125 17.625 -15.84375 C 17.625 -15.375 17.472656 -15.007812 17.171875 -14.75 C 16.867188 -14.5 16.445312 -14.375 15.90625 -14.375 C 15.488281 -14.375 15.140625 -14.457031 14.859375 -14.625 C 14.578125 -14.800781 14.210938 -15.195312 13.765625 -15.8125 C 13.304688 -16.34375 12.859375 -16.71875 12.421875 -16.9375 C 11.992188 -17.164062 11.441406 -17.28125 10.765625 -17.28125 C 9.097656 -17.28125 7.835938 -16.632812 6.984375 -15.34375 C 6.140625 -14.0625 5.71875 -12.171875 5.71875 -9.671875 C 5.71875 -6.984375 6.1875 -4.941406 7.125 -3.546875 C 8.070312 -2.160156 9.457031 -1.46875 11.28125 -1.46875 C 12.257812 -1.46875 13.179688 -1.660156 14.046875 -2.046875 C 14.910156 -2.429688 15.789062 -3.054688 16.6875 -3.921875 Z M 17.734375 -2.90625 "/></g></g></g><g fill="#ce7e98" fill-opacity="1"><g transform="translate(211.330091, 34.48118)"><g><path d="M 7.296875 -5.578125 C 7.296875 -4.617188 7.316406 -3.859375 7.359375 -3.296875 C 7.410156 -2.734375 7.535156 -2.304688 7.734375 -2.015625 C 7.929688 -1.722656 8.210938 -1.53125 8.578125 -1.4375 C 8.953125 -1.34375 9.476562 -1.273438 10.15625 -1.234375 L 10.15625 0 L 0.84375 0 L 0.84375 -1.234375 C 1.519531 -1.273438 2.054688 -1.34375 2.453125 -1.4375 C 2.847656 -1.53125 3.148438 -1.71875 3.359375 -2 C 3.578125 -2.28125 3.710938 -2.679688 3.765625 -3.203125 C 3.828125 -3.734375 3.859375 -4.441406 3.859375 -5.328125 L 3.859375 -20.015625 C 3.859375 -21.390625 3.835938 -22.484375 3.796875 -23.296875 C 3.765625 -24.117188 3.703125 -24.738281 3.609375 -25.15625 C 3.566406 -25.4375 3.488281 -25.664062 3.375 -25.84375 C 3.269531 -26.019531 3.113281 -26.160156 2.90625 -26.265625 C 2.695312 -26.367188 2.414062 -26.441406 2.0625 -26.484375 C 1.71875 -26.535156 1.285156 -26.5625 0.765625 -26.5625 L 0.765625 -27.75 L 7.21875 -29.09375 L 7.21875 -15.734375 L 7.359375 -15.734375 C 7.710938 -16.203125 8.148438 -16.628906 8.671875 -17.015625 C 9.203125 -17.398438 9.769531 -17.734375 10.375 -18.015625 C 10.976562 -18.296875 11.613281 -18.515625 12.28125 -18.671875 C 12.945312 -18.835938 13.597656 -18.921875 14.234375 -18.921875 C 15.304688 -18.921875 16.289062 -18.734375 17.1875 -18.359375 C 18.09375 -17.984375 18.789062 -17.484375 19.28125 -16.859375 C 19.675781 -16.316406 19.96875 -15.609375 20.15625 -14.734375 C 20.34375 -13.859375 20.4375 -12.675781 20.4375 -11.1875 L 20.4375 -5.578125 C 20.4375 -4.617188 20.457031 -3.863281 20.5 -3.3125 C 20.550781 -2.757812 20.675781 -2.332031 20.875 -2.03125 C 21.070312 -1.726562 21.359375 -1.53125 21.734375 -1.4375 C 22.109375 -1.34375 22.632812 -1.273438 23.3125 -1.234375 L 23.3125 0 L 14.015625 0 L 14.015625 -1.234375 C 14.671875 -1.253906 15.195312 -1.316406 15.59375 -1.421875 C 15.988281 -1.523438 16.285156 -1.71875 16.484375 -2 C 16.679688 -2.28125 16.8125 -2.679688 16.875 -3.203125 C 16.9375 -3.734375 16.96875 -4.441406 16.96875 -5.328125 L 16.96875 -9.75 C 16.96875 -12.363281 16.660156 -14.222656 16.046875 -15.328125 C 15.441406 -16.441406 14.425781 -17 13 -17 C 11.90625 -17 10.90625 -16.71875 10 -16.15625 C 9.101562 -15.59375 8.398438 -14.820312 7.890625 -13.84375 C 7.765625 -13.582031 7.660156 -13.34375 7.578125 -13.125 C 7.503906 -12.90625 7.441406 -12.65625 7.390625 -12.375 C 7.347656 -12.09375 7.320312 -11.769531 7.3125 -11.40625 C 7.300781 -11.039062 7.296875 -10.59375 7.296875 -10.0625 Z M 7.296875 -5.578125 "/></g></g></g><g fill="#ce7e98" fill-opacity="1"><g transform="translate(235.433428, 34.48118)"><g><path d="M 7.75 -5.609375 C 7.75 -4.628906 7.769531 -3.859375 7.8125 -3.296875 C 7.863281 -2.734375 7.988281 -2.304688 8.1875 -2.015625 C 8.382812 -1.722656 8.671875 -1.53125 9.046875 -1.4375 C 9.421875 -1.34375 9.945312 -1.273438 10.625 -1.234375 L 10.625 0 L 1.296875 0 L 1.296875 -1.234375 C 1.972656 -1.273438 2.507812 -1.34375 2.90625 -1.4375 C 3.300781 -1.53125 3.601562 -1.71875 3.8125 -2 C 4.03125 -2.28125 4.164062 -2.679688 4.21875 -3.203125 C 4.28125 -3.734375 4.3125 -4.441406 4.3125 -5.328125 L 4.3125 -9.8125 C 4.3125 -11.144531 4.289062 -12.253906 4.25 -13.140625 C 4.21875 -14.023438 4.15625 -14.632812 4.0625 -14.96875 C 3.988281 -15.269531 3.90625 -15.507812 3.8125 -15.6875 C 3.726562 -15.863281 3.578125 -16.003906 3.359375 -16.109375 C 3.148438 -16.210938 2.875 -16.28125 2.53125 -16.3125 C 2.195312 -16.34375 1.765625 -16.359375 1.234375 -16.359375 L 1.234375 -17.59375 L 6.9375 -18.921875 L 7.390625 -15.421875 L 7.5625 -15.421875 C 8.613281 -16.609375 9.71875 -17.488281 10.875 -18.0625 C 12.03125 -18.632812 13.3125 -18.921875 14.71875 -18.921875 C 16.1875 -18.921875 17.421875 -18.625 18.421875 -18.03125 C 19.429688 -17.4375 20.132812 -16.578125 20.53125 -15.453125 L 20.671875 -15.453125 C 21.535156 -16.554688 22.585938 -17.410156 23.828125 -18.015625 C 25.066406 -18.617188 26.390625 -18.921875 27.796875 -18.921875 C 28.890625 -18.921875 29.882812 -18.738281 30.78125 -18.375 C 31.6875 -18.019531 32.375 -17.523438 32.84375 -16.890625 C 33.257812 -16.359375 33.554688 -15.648438 33.734375 -14.765625 C 33.910156 -13.890625 34 -12.695312 34 -11.1875 L 34 -5.609375 C 34 -4.648438 34.023438 -3.890625 34.078125 -3.328125 C 34.140625 -2.765625 34.265625 -2.332031 34.453125 -2.03125 C 34.640625 -1.726562 34.925781 -1.53125 35.3125 -1.4375 C 35.695312 -1.34375 36.226562 -1.273438 36.90625 -1.234375 L 36.90625 0 L 27.578125 0 L 27.578125 -1.234375 C 28.234375 -1.253906 28.757812 -1.316406 29.15625 -1.421875 C 29.550781 -1.523438 29.851562 -1.722656 30.0625 -2.015625 C 30.28125 -2.304688 30.414062 -2.707031 30.46875 -3.21875 C 30.53125 -3.738281 30.5625 -4.441406 30.5625 -5.328125 L 30.5625 -9.75 C 30.5625 -11.070312 30.488281 -12.195312 30.34375 -13.125 C 30.207031 -14.050781 29.972656 -14.800781 29.640625 -15.375 C 29.316406 -15.945312 28.890625 -16.359375 28.359375 -16.609375 C 27.835938 -16.867188 27.203125 -17 26.453125 -17 C 25.429688 -17 24.46875 -16.710938 23.5625 -16.140625 C 22.664062 -15.566406 21.960938 -14.800781 21.453125 -13.84375 C 21.328125 -13.613281 21.222656 -13.382812 21.140625 -13.15625 C 21.066406 -12.9375 21.003906 -12.691406 20.953125 -12.421875 C 20.910156 -12.148438 20.882812 -11.828125 20.875 -11.453125 C 20.863281 -11.085938 20.859375 -10.625 20.859375 -10.0625 L 20.859375 -5.609375 C 20.859375 -4.648438 20.878906 -3.890625 20.921875 -3.328125 C 20.972656 -2.765625 21.097656 -2.332031 21.296875 -2.03125 C 21.492188 -1.726562 21.789062 -1.53125 22.1875 -1.4375 C 22.582031 -1.34375 23.117188 -1.273438 23.796875 -1.234375 L 23.796875 0 L 14.46875 0 L 14.46875 -1.234375 C 15.125 -1.273438 15.648438 -1.34375 16.046875 -1.4375 C 16.441406 -1.53125 16.738281 -1.71875 16.9375 -2 C 17.144531 -2.28125 17.273438 -2.679688 17.328125 -3.203125 C 17.390625 -3.734375 17.421875 -4.441406 17.421875 -5.328125 L 17.421875 -9.75 C 17.421875 -11.101562 17.347656 -12.238281 17.203125 -13.15625 C 17.066406 -14.082031 16.835938 -14.832031 16.515625 -15.40625 C 16.203125 -15.976562 15.789062 -16.382812 15.28125 -16.625 C 14.769531 -16.875 14.140625 -17 13.390625 -17 C 12.335938 -17 11.347656 -16.710938 10.421875 -16.140625 C 9.503906 -15.566406 8.8125 -14.800781 8.34375 -13.84375 C 8.226562 -13.613281 8.128906 -13.382812 8.046875 -13.15625 C 7.960938 -12.9375 7.894531 -12.691406 7.84375 -12.421875 C 7.800781 -12.148438 7.773438 -11.828125 7.765625 -11.453125 C 7.753906 -11.085938 7.75 -10.625 7.75 -10.0625 Z M 7.75 -5.609375 "/></g></g></g><g fill="#ce7e98" fill-opacity="1"><g transform="translate(273.024831, 34.48118)"><g><path d="M 12.234375 -10.375 C 10.898438 -9.863281 9.769531 -9.359375 8.84375 -8.859375 C 7.925781 -8.367188 7.1875 -7.878906 6.625 -7.390625 C 6.0625 -6.898438 5.65625 -6.410156 5.40625 -5.921875 C 5.164062 -5.429688 5.046875 -4.929688 5.046875 -4.421875 C 5.046875 -3.648438 5.300781 -3.015625 5.8125 -2.515625 C 6.332031 -2.023438 7.007812 -1.78125 7.84375 -1.78125 C 8.457031 -1.78125 9.023438 -1.929688 9.546875 -2.234375 C 10.078125 -2.546875 10.539062 -2.960938 10.9375 -3.484375 C 11.332031 -4.015625 11.644531 -4.632812 11.875 -5.34375 C 12.113281 -6.050781 12.234375 -6.804688 12.234375 -7.609375 Z M 12.234375 -11.875 L 12.234375 -13.3125 C 12.234375 -16.164062 11.019531 -17.59375 8.59375 -17.59375 C 8.1875 -17.59375 7.84375 -17.554688 7.5625 -17.484375 C 7.289062 -17.421875 7.0625 -17.304688 6.875 -17.140625 C 6.6875 -16.972656 6.515625 -16.738281 6.359375 -16.4375 C 6.210938 -16.132812 6.066406 -15.757812 5.921875 -15.3125 C 5.660156 -14.632812 5.40625 -14.1875 5.15625 -13.96875 C 4.914062 -13.75 4.5625 -13.640625 4.09375 -13.640625 C 2.925781 -13.640625 2.34375 -14.222656 2.34375 -15.390625 C 2.34375 -16.503906 2.9375 -17.367188 4.125 -17.984375 C 5.320312 -18.609375 7.019531 -18.921875 9.21875 -18.921875 C 11.550781 -18.921875 13.207031 -18.503906 14.1875 -17.671875 C 15.175781 -16.847656 15.671875 -15.441406 15.671875 -13.453125 L 15.671875 -5.609375 C 15.671875 -2.941406 16.195312 -1.609375 17.25 -1.609375 C 17.570312 -1.609375 17.882812 -1.648438 18.1875 -1.734375 C 18.488281 -1.816406 18.742188 -2.035156 18.953125 -2.390625 L 19.453125 -1.546875 C 19.171875 -1.003906 18.65625 -0.550781 17.90625 -0.1875 C 17.15625 0.164062 16.375 0.34375 15.5625 0.34375 C 14.53125 0.34375 13.765625 0.0195312 13.265625 -0.625 C 12.765625 -1.28125 12.515625 -2.207031 12.515625 -3.40625 L 12.34375 -3.40625 C 11.726562 -2.257812 10.882812 -1.351562 9.8125 -0.6875 C 8.738281 -0.0195312 7.546875 0.3125 6.234375 0.3125 C 4.765625 0.3125 3.609375 -0.0546875 2.765625 -0.796875 C 1.921875 -1.546875 1.5 -2.550781 1.5 -3.8125 C 1.5 -4.375 1.597656 -4.910156 1.796875 -5.421875 C 2.003906 -5.941406 2.328125 -6.4375 2.765625 -6.90625 C 3.210938 -7.375 3.796875 -7.832031 4.515625 -8.28125 C 5.242188 -8.738281 6.132812 -9.203125 7.1875 -9.671875 Z M 12.234375 -11.875 "/></g></g></g><g fill="#ce7e98" fill-opacity="1"><g transform="translate(292.433617, 34.48118)"><g><path d="M 12.203125 -1.234375 C 12.972656 -1.234375 13.503906 -1.265625 13.796875 -1.328125 C 14.085938 -1.398438 14.234375 -1.492188 14.234375 -1.609375 C 14.203125 -1.796875 14.007812 -2.132812 13.65625 -2.625 C 13.3125 -3.113281 12.859375 -3.695312 12.296875 -4.375 L 8.59375 -8.859375 L 7.296875 -7.640625 L 7.296875 -5.578125 C 7.296875 -4.660156 7.332031 -3.925781 7.40625 -3.375 C 7.488281 -2.832031 7.640625 -2.398438 7.859375 -2.078125 C 8.085938 -1.765625 8.414062 -1.550781 8.84375 -1.4375 C 9.28125 -1.320312 9.847656 -1.253906 10.546875 -1.234375 L 10.546875 0 L 0.59375 0 L 0.59375 -1.234375 C 1.289062 -1.253906 1.851562 -1.320312 2.28125 -1.4375 C 2.71875 -1.550781 3.0625 -1.757812 3.3125 -2.0625 C 3.5625 -2.363281 3.726562 -2.769531 3.8125 -3.28125 C 3.90625 -3.800781 3.953125 -4.484375 3.953125 -5.328125 L 3.953125 -20.015625 C 3.953125 -21.785156 3.9375 -23.125 3.90625 -24.03125 C 3.875 -24.945312 3.753906 -25.570312 3.546875 -25.90625 C 3.328125 -26.226562 2.972656 -26.414062 2.484375 -26.46875 C 1.992188 -26.53125 1.34375 -26.5625 0.53125 -26.5625 L 0.53125 -27.75 L 7.296875 -29.09375 L 7.296875 -9.84375 L 10.546875 -13.03125 C 11.597656 -14.082031 12.378906 -14.859375 12.890625 -15.359375 C 13.410156 -15.867188 13.671875 -16.25 13.671875 -16.5 C 13.671875 -16.757812 13.425781 -16.960938 12.9375 -17.109375 C 12.445312 -17.265625 11.742188 -17.34375 10.828125 -17.34375 L 10.828125 -18.578125 L 19.9375 -18.578125 L 19.9375 -17.34375 C 19.5 -17.34375 19.113281 -17.316406 18.78125 -17.265625 C 18.457031 -17.222656 18.148438 -17.128906 17.859375 -16.984375 C 17.566406 -16.847656 17.253906 -16.65625 16.921875 -16.40625 C 16.597656 -16.164062 16.226562 -15.859375 15.8125 -15.484375 L 10.765625 -11 L 17.703125 -3.15625 C 18.023438 -2.757812 18.320312 -2.4375 18.59375 -2.1875 C 18.863281 -1.945312 19.128906 -1.753906 19.390625 -1.609375 C 19.660156 -1.472656 19.953125 -1.375 20.265625 -1.3125 C 20.585938 -1.257812 20.96875 -1.234375 21.40625 -1.234375 L 21.40625 0 L 12.203125 0 Z M 12.203125 -1.234375 "/></g></g></g><g fill="#ce7e98" fill-opacity="1"><g transform="translate(314.014531, 34.48118)"><g><path d="M 7.984375 -5.578125 C 7.984375 -4.660156 8.023438 -3.925781 8.109375 -3.375 C 8.191406 -2.832031 8.347656 -2.398438 8.578125 -2.078125 C 8.816406 -1.765625 9.144531 -1.550781 9.5625 -1.4375 C 9.988281 -1.320312 10.550781 -1.253906 11.25 -1.234375 L 11.25 0 L 1.1875 0 L 1.1875 -1.234375 C 1.894531 -1.253906 2.46875 -1.328125 2.90625 -1.453125 C 3.351562 -1.578125 3.695312 -1.785156 3.9375 -2.078125 C 4.1875 -2.367188 4.351562 -2.773438 4.4375 -3.296875 C 4.519531 -3.828125 4.5625 -4.503906 4.5625 -5.328125 L 4.5625 -9.8125 C 4.5625 -11.164062 4.539062 -12.28125 4.5 -13.15625 C 4.46875 -14.03125 4.40625 -14.632812 4.3125 -14.96875 C 4.195312 -15.5 3.925781 -15.863281 3.5 -16.0625 C 3.082031 -16.257812 2.289062 -16.359375 1.125 -16.359375 L 1.125 -17.59375 L 7.984375 -18.921875 Z M 3.953125 -26.046875 C 3.953125 -26.648438 4.160156 -27.160156 4.578125 -27.578125 C 5.003906 -28.003906 5.523438 -28.21875 6.140625 -28.21875 C 6.742188 -28.21875 7.253906 -28.003906 7.671875 -27.578125 C 8.097656 -27.160156 8.3125 -26.648438 8.3125 -26.046875 C 8.3125 -25.429688 8.097656 -24.910156 7.671875 -24.484375 C 7.253906 -24.066406 6.742188 -23.859375 6.140625 -23.859375 C 5.523438 -23.859375 5.003906 -24.066406 4.578125 -24.484375 C 4.160156 -24.910156 3.953125 -25.429688 3.953125 -26.046875 Z M 3.953125 -26.046875 "/></g></g></g><g fill="#ce7e98" fill-opacity="1"><g transform="translate(325.961095, 34.48118)"><g><path d="M 7.5625 -5.5 C 7.5625 -4.539062 7.582031 -3.785156 7.625 -3.234375 C 7.675781 -2.691406 7.800781 -2.273438 8 -1.984375 C 8.207031 -1.691406 8.503906 -1.5 8.890625 -1.40625 C 9.273438 -1.3125 9.804688 -1.238281 10.484375 -1.1875 L 10.484375 0 L 1.296875 0 L 1.296875 -1.1875 C 1.953125 -1.238281 2.472656 -1.3125 2.859375 -1.40625 C 3.242188 -1.5 3.539062 -1.6875 3.75 -1.96875 C 3.957031 -2.25 4.085938 -2.644531 4.140625 -3.15625 C 4.203125 -3.664062 4.234375 -4.363281 4.234375 -5.25 L 4.234375 -9.921875 C 4.234375 -12.703125 4.164062 -14.394531 4.03125 -15 C 3.957031 -15.300781 3.867188 -15.550781 3.765625 -15.75 C 3.660156 -15.945312 3.503906 -16.097656 3.296875 -16.203125 C 3.085938 -16.304688 2.816406 -16.375 2.484375 -16.40625 C 2.160156 -16.445312 1.742188 -16.46875 1.234375 -16.46875 L 1.234375 -17.59375 L 6.828125 -18.921875 L 7.25 -15.453125 L 7.390625 -15.453125 C 8.285156 -16.554688 9.328125 -17.410156 10.515625 -18.015625 C 11.703125 -18.617188 13 -18.921875 14.40625 -18.921875 C 15.476562 -18.921875 16.457031 -18.742188 17.34375 -18.390625 C 18.238281 -18.046875 18.914062 -17.570312 19.375 -16.96875 C 19.78125 -16.425781 20.0625 -15.726562 20.21875 -14.875 C 20.382812 -14.019531 20.46875 -12.847656 20.46875 -11.359375 L 20.46875 -5.5 C 20.46875 -4.539062 20.492188 -3.785156 20.546875 -3.234375 C 20.609375 -2.691406 20.734375 -2.273438 20.921875 -1.984375 C 21.109375 -1.691406 21.394531 -1.5 21.78125 -1.40625 C 22.164062 -1.3125 22.675781 -1.238281 23.3125 -1.1875 L 23.3125 0 L 14.234375 0 L 14.234375 -1.1875 C 14.878906 -1.21875 15.394531 -1.285156 15.78125 -1.390625 C 16.164062 -1.492188 16.457031 -1.6875 16.65625 -1.96875 C 16.863281 -2.25 16.992188 -2.648438 17.046875 -3.171875 C 17.109375 -3.691406 17.140625 -4.382812 17.140625 -5.25 L 17.140625 -9.890625 C 17.140625 -11.210938 17.066406 -12.328125 16.921875 -13.234375 C 16.785156 -14.148438 16.554688 -14.890625 16.234375 -15.453125 C 15.921875 -16.015625 15.507812 -16.414062 15 -16.65625 C 14.488281 -16.90625 13.867188 -17.03125 13.140625 -17.03125 C 12.085938 -17.03125 11.125 -16.753906 10.25 -16.203125 C 9.375 -15.660156 8.691406 -14.910156 8.203125 -13.953125 C 8.085938 -13.710938 7.988281 -13.488281 7.90625 -13.28125 C 7.820312 -13.070312 7.753906 -12.828125 7.703125 -12.546875 C 7.660156 -12.265625 7.625 -11.941406 7.59375 -11.578125 C 7.570312 -11.222656 7.5625 -10.765625 7.5625 -10.203125 Z M 7.5625 -5.5 "/></g></g></g><g fill="#ce7e98" fill-opacity="1"><g transform="translate(350.099473, 34.48118)"><g><path d="M 9.609375 -7.53125 C 10.585938 -7.53125 11.347656 -7.972656 11.890625 -8.859375 C 12.441406 -9.753906 12.71875 -11.003906 12.71875 -12.609375 C 12.71875 -14.203125 12.441406 -15.4375 11.890625 -16.3125 C 11.347656 -17.1875 10.570312 -17.625 9.5625 -17.625 C 8.5625 -17.625 7.757812 -17.179688 7.15625 -16.296875 C 6.5625 -15.410156 6.265625 -14.195312 6.265625 -12.65625 C 6.265625 -11.113281 6.566406 -9.875 7.171875 -8.9375 C 7.785156 -8 8.597656 -7.53125 9.609375 -7.53125 Z M 7.671875 -3.4375 C 8.234375 -3.382812 8.75 -3.332031 9.21875 -3.28125 C 9.6875 -3.238281 10.144531 -3.191406 10.59375 -3.140625 C 11.050781 -3.097656 11.507812 -3.039062 11.96875 -2.96875 C 12.425781 -2.90625 12.921875 -2.835938 13.453125 -2.765625 C 15.140625 -2.515625 16.488281 -1.867188 17.5 -0.828125 C 18.519531 0.210938 19.03125 1.515625 19.03125 3.078125 C 19.03125 5.046875 18.253906 6.539062 16.703125 7.5625 C 15.148438 8.59375 12.898438 9.109375 9.953125 9.109375 C 8.640625 9.109375 7.441406 8.988281 6.359375 8.75 C 5.273438 8.519531 4.347656 8.1875 3.578125 7.75 C 2.804688 7.320312 2.203125 6.804688 1.765625 6.203125 C 1.335938 5.597656 1.125 4.929688 1.125 4.203125 C 1.125 3.710938 1.203125 3.253906 1.359375 2.828125 C 1.523438 2.410156 1.75 2.046875 2.03125 1.734375 C 2.3125 1.421875 2.644531 1.171875 3.03125 0.984375 C 3.414062 0.796875 3.816406 0.703125 4.234375 0.703125 C 5.035156 0.703125 5.75 0.945312 6.375 1.4375 C 5.75 1.570312 5.234375 1.914062 4.828125 2.46875 C 4.429688 3.019531 4.234375 3.644531 4.234375 4.34375 C 4.234375 5.375 4.742188 6.164062 5.765625 6.71875 C 6.785156 7.28125 8.226562 7.5625 10.09375 7.5625 C 14.09375 7.5625 16.09375 6.335938 16.09375 3.890625 C 16.09375 2.953125 15.773438 2.171875 15.140625 1.546875 C 14.503906 0.929688 13.753906 0.566406 12.890625 0.453125 C 12.335938 0.378906 11.757812 0.300781 11.15625 0.21875 C 10.5625 0.144531 9.976562 0.0703125 9.40625 0 C 8.832031 -0.0703125 8.300781 -0.128906 7.8125 -0.171875 C 7.320312 -0.222656 6.925781 -0.269531 6.625 -0.3125 C 5.3125 -0.457031 4.316406 -0.804688 3.640625 -1.359375 C 2.960938 -1.921875 2.625 -2.695312 2.625 -3.6875 C 2.625 -4.5 2.960938 -5.21875 3.640625 -5.84375 C 4.316406 -6.476562 5.171875 -6.878906 6.203125 -7.046875 L 6.203125 -7.1875 C 5.691406 -7.394531 5.210938 -7.691406 4.765625 -8.078125 C 4.316406 -8.460938 3.9375 -8.898438 3.625 -9.390625 C 3.3125 -9.878906 3.0625 -10.410156 2.875 -10.984375 C 2.6875 -11.554688 2.59375 -12.144531 2.59375 -12.75 C 2.59375 -13.644531 2.757812 -14.460938 3.09375 -15.203125 C 3.4375 -15.953125 3.914062 -16.601562 4.53125 -17.15625 C 5.15625 -17.707031 5.882812 -18.140625 6.71875 -18.453125 C 7.5625 -18.765625 8.488281 -18.921875 9.5 -18.921875 C 10.53125 -18.921875 11.5 -18.765625 12.40625 -18.453125 C 13.3125 -18.140625 14.09375 -17.675781 14.75 -17.0625 C 15.550781 -17.71875 16.253906 -18.191406 16.859375 -18.484375 C 17.460938 -18.773438 18.035156 -18.921875 18.578125 -18.921875 C 19.421875 -18.921875 20.09375 -18.726562 20.59375 -18.34375 C 21.09375 -17.957031 21.34375 -17.4375 21.34375 -16.78125 C 21.34375 -16.382812 21.207031 -16.066406 20.9375 -15.828125 C 20.664062 -15.597656 20.332031 -15.484375 19.9375 -15.484375 C 19.613281 -15.484375 19.34375 -15.539062 19.125 -15.65625 C 18.914062 -15.78125 18.722656 -15.90625 18.546875 -16.03125 C 18.378906 -16.164062 18.203125 -16.289062 18.015625 -16.40625 C 17.828125 -16.519531 17.59375 -16.578125 17.3125 -16.578125 C 16.75 -16.578125 16.175781 -16.378906 15.59375 -15.984375 C 16.15625 -15.117188 16.4375 -14.03125 16.4375 -12.71875 C 16.4375 -10.738281 15.816406 -9.179688 14.578125 -8.046875 C 13.335938 -6.910156 11.476562 -6.25 9 -6.0625 C 7.582031 -5.945312 6.59375 -5.796875 6.03125 -5.609375 C 5.46875 -5.421875 5.1875 -5.082031 5.1875 -4.59375 C 5.1875 -4.21875 5.394531 -3.941406 5.8125 -3.765625 C 6.238281 -3.585938 6.859375 -3.476562 7.671875 -3.4375 Z M 7.671875 -3.4375 "/></g></g></g><g fill="#ce7e98" fill-opacity="1"><g transform="translate(371.084803, 34.48118)"><g><path d="M 2.34375 -1.921875 C 2.34375 -2.578125 2.566406 -3.125 3.015625 -3.5625 C 3.460938 -4.007812 4 -4.234375 4.625 -4.234375 C 5.28125 -4.234375 5.828125 -4.007812 6.265625 -3.5625 C 6.710938 -3.125 6.9375 -2.578125 6.9375 -1.921875 C 6.9375 -1.296875 6.710938 -0.757812 6.265625 -0.3125 C 5.828125 0.125 5.28125 0.34375 4.625 0.34375 C 4 0.34375 3.460938 0.125 3.015625 -0.3125 C 2.566406 -0.757812 2.34375 -1.296875 2.34375 -1.921875 Z M 2.34375 -1.921875 "/></g></g></g><g fill="#ce7e98" fill-opacity="1"><g transform="translate(380.36878, 34.48118)"><g/></g></g><g fill="#ce7e98" fill-opacity="1"><g transform="translate(390.423507, 34.48118)"><g><path d="M 24.328125 0.34375 L 7.671875 -21.59375 L 7.53125 -21.59375 L 7.53125 -6.625 C 7.53125 -5.457031 7.570312 -4.535156 7.65625 -3.859375 C 7.738281 -3.179688 7.898438 -2.65625 8.140625 -2.28125 C 8.390625 -1.90625 8.742188 -1.65625 9.203125 -1.53125 C 9.660156 -1.414062 10.257812 -1.347656 11 -1.328125 L 11 0 L 1.578125 0 L 1.578125 -1.328125 C 2.390625 -1.347656 3.046875 -1.421875 3.546875 -1.546875 C 4.054688 -1.679688 4.453125 -1.921875 4.734375 -2.265625 C 5.015625 -2.617188 5.203125 -3.117188 5.296875 -3.765625 C 5.390625 -4.410156 5.4375 -5.28125 5.4375 -6.375 L 5.4375 -20.609375 C 5.4375 -21.585938 5.394531 -22.394531 5.3125 -23.03125 C 5.226562 -23.675781 5.0625 -24.1875 4.8125 -24.5625 C 4.570312 -24.9375 4.21875 -25.195312 3.75 -25.34375 C 3.28125 -25.5 2.671875 -25.601562 1.921875 -25.65625 L 1.921875 -26.984375 L 8.859375 -26.984375 L 24.1875 -6.546875 L 24.328125 -6.546875 L 24.328125 -20.359375 C 24.328125 -21.503906 24.285156 -22.421875 24.203125 -23.109375 C 24.117188 -23.796875 23.953125 -24.328125 23.703125 -24.703125 C 23.460938 -25.078125 23.113281 -25.320312 22.65625 -25.4375 C 22.195312 -25.5625 21.597656 -25.632812 20.859375 -25.65625 L 20.859375 -26.984375 L 30.28125 -26.984375 L 30.28125 -25.65625 C 29.457031 -25.632812 28.796875 -25.554688 28.296875 -25.421875 C 27.796875 -25.296875 27.40625 -25.054688 27.125 -24.703125 C 26.84375 -24.359375 26.65625 -23.859375 26.5625 -23.203125 C 26.46875 -22.546875 26.421875 -21.679688 26.421875 -20.609375 L 26.421875 0.34375 Z M 24.328125 0.34375 "/></g></g></g><g fill="#ce7e98" fill-opacity="1"><g transform="translate(420.937827, 34.48118)"><g><path d="M 11.390625 -18.921875 C 12.722656 -18.921875 13.984375 -18.679688 15.171875 -18.203125 C 16.367188 -17.722656 17.414062 -17.0625 18.3125 -16.21875 C 19.207031 -15.382812 19.914062 -14.390625 20.4375 -13.234375 C 20.96875 -12.078125 21.234375 -10.804688 21.234375 -9.421875 C 21.234375 -8.003906 20.96875 -6.695312 20.4375 -5.5 C 19.914062 -4.3125 19.207031 -3.285156 18.3125 -2.421875 C 17.414062 -1.554688 16.367188 -0.878906 15.171875 -0.390625 C 13.984375 0.0976562 12.722656 0.34375 11.390625 0.34375 C 10.078125 0.34375 8.832031 0.101562 7.65625 -0.375 C 6.476562 -0.851562 5.441406 -1.523438 4.546875 -2.390625 C 3.660156 -3.253906 2.960938 -4.285156 2.453125 -5.484375 C 1.941406 -6.691406 1.6875 -8.003906 1.6875 -9.421875 C 1.6875 -10.804688 1.941406 -12.082031 2.453125 -13.25 C 2.960938 -14.414062 3.660156 -15.414062 4.546875 -16.25 C 5.441406 -17.09375 6.476562 -17.75 7.65625 -18.21875 C 8.832031 -18.6875 10.078125 -18.921875 11.390625 -18.921875 Z M 11.390625 -17.25 C 10.523438 -17.25 9.734375 -17.0625 9.015625 -16.6875 C 8.304688 -16.3125 7.703125 -15.773438 7.203125 -15.078125 C 6.703125 -14.390625 6.316406 -13.5625 6.046875 -12.59375 C 5.773438 -11.625 5.640625 -10.554688 5.640625 -9.390625 C 5.640625 -8.171875 5.773438 -7.070312 6.046875 -6.09375 C 6.316406 -5.113281 6.703125 -4.28125 7.203125 -3.59375 C 7.703125 -2.90625 8.300781 -2.375 9 -2 C 9.707031 -1.625 10.503906 -1.4375 11.390625 -1.4375 C 12.273438 -1.4375 13.078125 -1.625 13.796875 -2 C 14.523438 -2.375 15.144531 -2.910156 15.65625 -3.609375 C 16.175781 -4.304688 16.578125 -5.144531 16.859375 -6.125 C 17.140625 -7.113281 17.28125 -8.203125 17.28125 -9.390625 C 17.28125 -10.554688 17.140625 -11.617188 16.859375 -12.578125 C 16.578125 -13.535156 16.175781 -14.359375 15.65625 -15.046875 C 15.144531 -15.742188 14.523438 -16.285156 13.796875 -16.671875 C 13.078125 -17.054688 12.273438 -17.25 11.390625 -17.25 Z M 11.390625 -17.25 "/></g></g></g><g fill="#ce7e98" fill-opacity="1"><g transform="translate(443.849995, 34.48118)"><g/></g></g><g fill="#ce7e98" fill-opacity="1"><g transform="translate(453.904723, 34.48118)"><g><path d="M 2.03125 -8.234375 L 3.328125 -8.234375 C 3.492188 -7.179688 3.800781 -6.234375 4.25 -5.390625 C 4.707031 -4.554688 5.28125 -3.847656 5.96875 -3.265625 C 6.664062 -2.679688 7.460938 -2.226562 8.359375 -1.90625 C 9.253906 -1.59375 10.226562 -1.4375 11.28125 -1.4375 C 13.007812 -1.4375 14.375 -1.84375 15.375 -2.65625 C 16.382812 -3.476562 16.890625 -4.59375 16.890625 -6 C 16.890625 -6.582031 16.789062 -7.117188 16.59375 -7.609375 C 16.394531 -8.097656 16.0625 -8.566406 15.59375 -9.015625 C 15.125 -9.472656 14.5 -9.925781 13.71875 -10.375 C 12.9375 -10.820312 11.953125 -11.300781 10.765625 -11.8125 C 9.316406 -12.4375 8.097656 -13.039062 7.109375 -13.625 C 6.128906 -14.21875 5.347656 -14.828125 4.765625 -15.453125 C 4.179688 -16.085938 3.765625 -16.757812 3.515625 -17.46875 C 3.273438 -18.1875 3.15625 -19 3.15625 -19.90625 C 3.15625 -20.976562 3.347656 -21.96875 3.734375 -22.875 C 4.117188 -23.789062 4.660156 -24.582031 5.359375 -25.25 C 6.054688 -25.914062 6.882812 -26.429688 7.84375 -26.796875 C 8.800781 -27.160156 9.851562 -27.34375 11 -27.34375 C 12.03125 -27.34375 12.988281 -27.175781 13.875 -26.84375 C 14.757812 -26.519531 15.660156 -25.992188 16.578125 -25.265625 L 17.484375 -26.84375 L 18.296875 -26.84375 L 18.6875 -19.875 L 17.390625 -19.875 C 16.828125 -21.789062 16.015625 -23.210938 14.953125 -24.140625 C 13.890625 -25.078125 12.609375 -25.546875 11.109375 -25.546875 C 9.679688 -25.546875 8.546875 -25.195312 7.703125 -24.5 C 6.867188 -23.800781 6.453125 -22.851562 6.453125 -21.65625 C 6.453125 -21.09375 6.546875 -20.582031 6.734375 -20.125 C 6.921875 -19.675781 7.222656 -19.242188 7.640625 -18.828125 C 8.054688 -18.421875 8.601562 -18.015625 9.28125 -17.609375 C 9.957031 -17.203125 10.800781 -16.773438 11.8125 -16.328125 C 13.539062 -15.554688 14.976562 -14.835938 16.125 -14.171875 C 17.269531 -13.503906 18.179688 -12.835938 18.859375 -12.171875 C 19.535156 -11.515625 20.015625 -10.816406 20.296875 -10.078125 C 20.578125 -9.335938 20.71875 -8.515625 20.71875 -7.609375 C 20.71875 -6.441406 20.484375 -5.363281 20.015625 -4.375 C 19.546875 -3.394531 18.890625 -2.554688 18.046875 -1.859375 C 17.203125 -1.160156 16.195312 -0.617188 15.03125 -0.234375 C 13.863281 0.148438 12.582031 0.34375 11.1875 0.34375 C 9.851562 0.34375 8.65625 0.160156 7.59375 -0.203125 C 6.53125 -0.578125 5.445312 -1.210938 4.34375 -2.109375 L 3.359375 -0.390625 L 2.5625 -0.390625 Z M 2.03125 -8.234375 "/></g></g></g><g fill="#ce7e98" fill-opacity="1"><g transform="translate(475.905896, 34.48118)"><g><path d="M 9.75 0.34375 L 8.453125 0.34375 L 3.890625 -14.234375 C 3.679688 -14.878906 3.484375 -15.398438 3.296875 -15.796875 C 3.109375 -16.203125 2.882812 -16.519531 2.625 -16.75 C 2.375 -16.988281 2.070312 -17.144531 1.71875 -17.21875 C 1.363281 -17.300781 0.929688 -17.34375 0.421875 -17.34375 L 0.421875 -18.578125 L 9.703125 -18.578125 L 9.703125 -17.34375 C 8.796875 -17.34375 8.15625 -17.238281 7.78125 -17.03125 C 7.40625 -16.820312 7.21875 -16.460938 7.21875 -15.953125 C 7.21875 -15.710938 7.253906 -15.4375 7.328125 -15.125 C 7.398438 -14.8125 7.492188 -14.421875 7.609375 -13.953125 L 9.984375 -5.578125 L 10.125 -5.578125 L 15.28125 -18.578125 L 16.359375 -18.578125 L 21.03125 -5.578125 L 21.171875 -5.578125 L 23.265625 -11.25 C 23.546875 -12.019531 23.78125 -12.664062 23.96875 -13.1875 C 24.15625 -13.71875 24.300781 -14.160156 24.40625 -14.515625 C 24.507812 -14.878906 24.582031 -15.175781 24.625 -15.40625 C 24.675781 -15.644531 24.703125 -15.875 24.703125 -16.09375 C 24.703125 -16.601562 24.550781 -16.9375 24.25 -17.09375 C 23.945312 -17.257812 23.316406 -17.34375 22.359375 -17.34375 L 22.359375 -18.578125 L 29.375 -18.578125 L 29.375 -17.34375 C 29.019531 -17.34375 28.71875 -17.289062 28.46875 -17.1875 C 28.226562 -17.082031 27.984375 -16.878906 27.734375 -16.578125 C 27.492188 -16.273438 27.242188 -15.84375 26.984375 -15.28125 C 26.722656 -14.71875 26.410156 -13.984375 26.046875 -13.078125 L 20.609375 0.34375 L 19.3125 0.34375 L 15.03125 -12.578125 L 14.890625 -12.578125 Z M 9.75 0.34375 "/></g></g></g><g fill="#ce7e98" fill-opacity="1"><g transform="translate(505.754785, 34.48118)"><g><path d="M 7.984375 -5.578125 C 7.984375 -4.660156 8.023438 -3.925781 8.109375 -3.375 C 8.191406 -2.832031 8.347656 -2.398438 8.578125 -2.078125 C 8.816406 -1.765625 9.144531 -1.550781 9.5625 -1.4375 C 9.988281 -1.320312 10.550781 -1.253906 11.25 -1.234375 L 11.25 0 L 1.1875 0 L 1.1875 -1.234375 C 1.894531 -1.253906 2.46875 -1.328125 2.90625 -1.453125 C 3.351562 -1.578125 3.695312 -1.785156 3.9375 -2.078125 C 4.1875 -2.367188 4.351562 -2.773438 4.4375 -3.296875 C 4.519531 -3.828125 4.5625 -4.503906 4.5625 -5.328125 L 4.5625 -9.8125 C 4.5625 -11.164062 4.539062 -12.28125 4.5 -13.15625 C 4.46875 -14.03125 4.40625 -14.632812 4.3125 -14.96875 C 4.195312 -15.5 3.925781 -15.863281 3.5 -16.0625 C 3.082031 -16.257812 2.289062 -16.359375 1.125 -16.359375 L 1.125 -17.59375 L 7.984375 -18.921875 Z M 3.953125 -26.046875 C 3.953125 -26.648438 4.160156 -27.160156 4.578125 -27.578125 C 5.003906 -28.003906 5.523438 -28.21875 6.140625 -28.21875 C 6.742188 -28.21875 7.253906 -28.003906 7.671875 -27.578125 C 8.097656 -27.160156 8.3125 -26.648438 8.3125 -26.046875 C 8.3125 -25.429688 8.097656 -24.910156 7.671875 -24.484375 C 7.253906 -24.066406 6.742188 -23.859375 6.140625 -23.859375 C 5.523438 -23.859375 5.003906 -24.066406 4.578125 -24.484375 C 4.160156 -24.910156 3.953125 -25.429688 3.953125 -26.046875 Z M 3.953125 -26.046875 "/></g></g></g><g fill="#ce7e98" fill-opacity="1"><g transform="translate(517.70135, 34.48118)"><g><path d="M 7.359375 -16.046875 L 7.5 -16.046875 C 8.25 -16.941406 9.054688 -17.644531 9.921875 -18.15625 C 10.785156 -18.664062 11.789062 -18.921875 12.9375 -18.921875 C 14.269531 -18.921875 15.488281 -18.679688 16.59375 -18.203125 C 17.707031 -17.722656 18.671875 -17.050781 19.484375 -16.1875 C 20.304688 -15.320312 20.941406 -14.300781 21.390625 -13.125 C 21.847656 -11.945312 22.078125 -10.65625 22.078125 -9.25 C 22.078125 -7.820312 21.84375 -6.519531 21.375 -5.34375 C 20.90625 -4.164062 20.257812 -3.15625 19.4375 -2.3125 C 18.625 -1.46875 17.65625 -0.8125 16.53125 -0.34375 C 15.414062 0.113281 14.203125 0.34375 12.890625 0.34375 C 11.816406 0.34375 10.84375 0.164062 9.96875 -0.1875 C 9.09375 -0.550781 8.269531 -1.144531 7.5 -1.96875 L 7.5 3.15625 C 7.5 4.09375 7.546875 4.835938 7.640625 5.390625 C 7.734375 5.953125 7.921875 6.382812 8.203125 6.6875 C 8.484375 7 8.882812 7.210938 9.40625 7.328125 C 9.9375 7.441406 10.632812 7.507812 11.5 7.53125 L 11.5 8.765625 L 0.703125 8.765625 L 0.703125 7.53125 C 1.398438 7.507812 1.960938 7.441406 2.390625 7.328125 C 2.828125 7.210938 3.164062 7 3.40625 6.6875 C 3.65625 6.382812 3.828125 5.96875 3.921875 5.4375 C 4.015625 4.914062 4.0625 4.238281 4.0625 3.40625 L 4.0625 -9.703125 C 4.0625 -11.054688 4.039062 -12.164062 4 -13.03125 C 3.96875 -13.894531 3.90625 -14.492188 3.8125 -14.828125 C 3.695312 -15.390625 3.429688 -15.769531 3.015625 -15.96875 C 2.597656 -16.164062 1.800781 -16.265625 0.625 -16.265625 L 0.625 -17.453125 L 7.359375 -18.78125 Z M 8.40625 -15.03125 C 8.101562 -14.5625 7.875 -14.003906 7.71875 -13.359375 C 7.570312 -12.722656 7.5 -11.890625 7.5 -10.859375 L 7.5 -8.125 C 7.5 -7.5 7.515625 -6.957031 7.546875 -6.5 C 7.585938 -6.039062 7.640625 -5.648438 7.703125 -5.328125 C 7.773438 -5.003906 7.867188 -4.710938 7.984375 -4.453125 C 8.109375 -4.191406 8.265625 -3.945312 8.453125 -3.71875 C 8.984375 -2.96875 9.625 -2.382812 10.375 -1.96875 C 11.125 -1.5625 11.90625 -1.359375 12.71875 -1.359375 C 14.332031 -1.359375 15.632812 -2.035156 16.625 -3.390625 C 17.625 -4.753906 18.125 -6.660156 18.125 -9.109375 C 18.125 -10.328125 17.988281 -11.429688 17.71875 -12.421875 C 17.445312 -13.410156 17.066406 -14.257812 16.578125 -14.96875 C 16.085938 -15.6875 15.492188 -16.242188 14.796875 -16.640625 C 14.109375 -17.046875 13.347656 -17.25 12.515625 -17.25 C 11.671875 -17.25 10.890625 -17.054688 10.171875 -16.671875 C 9.460938 -16.285156 8.875 -15.738281 8.40625 -15.03125 Z M 8.40625 -15.03125 "/></g></g></g><g fill="#ce7e98" fill-opacity="1"><g transform="translate(541.489393, 34.48118)"><g><path d="M 7.984375 -5.578125 C 7.984375 -4.660156 8.023438 -3.925781 8.109375 -3.375 C 8.191406 -2.832031 8.347656 -2.398438 8.578125 -2.078125 C 8.816406 -1.765625 9.144531 -1.550781 9.5625 -1.4375 C 9.988281 -1.320312 10.550781 -1.253906 11.25 -1.234375 L 11.25 0 L 1.1875 0 L 1.1875 -1.234375 C 1.894531 -1.253906 2.46875 -1.328125 2.90625 -1.453125 C 3.351562 -1.578125 3.695312 -1.785156 3.9375 -2.078125 C 4.1875 -2.367188 4.351562 -2.773438 4.4375 -3.296875 C 4.519531 -3.828125 4.5625 -4.503906 4.5625 -5.328125 L 4.5625 -9.8125 C 4.5625 -11.164062 4.539062 -12.28125 4.5 -13.15625 C 4.46875 -14.03125 4.40625 -14.632812 4.3125 -14.96875 C 4.195312 -15.5 3.925781 -15.863281 3.5 -16.0625 C 3.082031 -16.257812 2.289062 -16.359375 1.125 -16.359375 L 1.125 -17.59375 L 7.984375 -18.921875 Z M 3.953125 -26.046875 C 3.953125 -26.648438 4.160156 -27.160156 4.578125 -27.578125 C 5.003906 -28.003906 5.523438 -28.21875 6.140625 -28.21875 C 6.742188 -28.21875 7.253906 -28.003906 7.671875 -27.578125 C 8.097656 -27.160156 8.3125 -26.648438 8.3125 -26.046875 C 8.3125 -25.429688 8.097656 -24.910156 7.671875 -24.484375 C 7.253906 -24.066406 6.742188 -23.859375 6.140625 -23.859375 C 5.523438 -23.859375 5.003906 -24.066406 4.578125 -24.484375 C 4.160156 -24.910156 3.953125 -25.429688 3.953125 -26.046875 Z M 3.953125 -26.046875 "/></g></g></g><g fill="#ce7e98" fill-opacity="1"><g transform="translate(553.435957, 34.48118)"><g><path d="M 7.5625 -5.5 C 7.5625 -4.539062 7.582031 -3.785156 7.625 -3.234375 C 7.675781 -2.691406 7.800781 -2.273438 8 -1.984375 C 8.207031 -1.691406 8.503906 -1.5 8.890625 -1.40625 C 9.273438 -1.3125 9.804688 -1.238281 10.484375 -1.1875 L 10.484375 0 L 1.296875 0 L 1.296875 -1.1875 C 1.953125 -1.238281 2.472656 -1.3125 2.859375 -1.40625 C 3.242188 -1.5 3.539062 -1.6875 3.75 -1.96875 C 3.957031 -2.25 4.085938 -2.644531 4.140625 -3.15625 C 4.203125 -3.664062 4.234375 -4.363281 4.234375 -5.25 L 4.234375 -9.921875 C 4.234375 -12.703125 4.164062 -14.394531 4.03125 -15 C 3.957031 -15.300781 3.867188 -15.550781 3.765625 -15.75 C 3.660156 -15.945312 3.503906 -16.097656 3.296875 -16.203125 C 3.085938 -16.304688 2.816406 -16.375 2.484375 -16.40625 C 2.160156 -16.445312 1.742188 -16.46875 1.234375 -16.46875 L 1.234375 -17.59375 L 6.828125 -18.921875 L 7.25 -15.453125 L 7.390625 -15.453125 C 8.285156 -16.554688 9.328125 -17.410156 10.515625 -18.015625 C 11.703125 -18.617188 13 -18.921875 14.40625 -18.921875 C 15.476562 -18.921875 16.457031 -18.742188 17.34375 -18.390625 C 18.238281 -18.046875 18.914062 -17.570312 19.375 -16.96875 C 19.78125 -16.425781 20.0625 -15.726562 20.21875 -14.875 C 20.382812 -14.019531 20.46875 -12.847656 20.46875 -11.359375 L 20.46875 -5.5 C 20.46875 -4.539062 20.492188 -3.785156 20.546875 -3.234375 C 20.609375 -2.691406 20.734375 -2.273438 20.921875 -1.984375 C 21.109375 -1.691406 21.394531 -1.5 21.78125 -1.40625 C 22.164062 -1.3125 22.675781 -1.238281 23.3125 -1.1875 L 23.3125 0 L 14.234375 0 L 14.234375 -1.1875 C 14.878906 -1.21875 15.394531 -1.285156 15.78125 -1.390625 C 16.164062 -1.492188 16.457031 -1.6875 16.65625 -1.96875 C 16.863281 -2.25 16.992188 -2.648438 17.046875 -3.171875 C 17.109375 -3.691406 17.140625 -4.382812 17.140625 -5.25 L 17.140625 -9.890625 C 17.140625 -11.210938 17.066406 -12.328125 16.921875 -13.234375 C 16.785156 -14.148438 16.554688 -14.890625 16.234375 -15.453125 C 15.921875 -16.015625 15.507812 -16.414062 15 -16.65625 C 14.488281 -16.90625 13.867188 -17.03125 13.140625 -17.03125 C 12.085938 -17.03125 11.125 -16.753906 10.25 -16.203125 C 9.375 -15.660156 8.691406 -14.910156 8.203125 -13.953125 C 8.085938 -13.710938 7.988281 -13.488281 7.90625 -13.28125 C 7.820312 -13.070312 7.753906 -12.828125 7.703125 -12.546875 C 7.660156 -12.265625 7.625 -11.941406 7.59375 -11.578125 C 7.570312 -11.222656 7.5625 -10.765625 7.5625 -10.203125 Z M 7.5625 -5.5 "/></g></g></g><g fill="#ce7e98" fill-opacity="1"><g transform="translate(577.574335, 34.48118)"><g><path d="M 9.609375 -7.53125 C 10.585938 -7.53125 11.347656 -7.972656 11.890625 -8.859375 C 12.441406 -9.753906 12.71875 -11.003906 12.71875 -12.609375 C 12.71875 -14.203125 12.441406 -15.4375 11.890625 -16.3125 C 11.347656 -17.1875 10.570312 -17.625 9.5625 -17.625 C 8.5625 -17.625 7.757812 -17.179688 7.15625 -16.296875 C 6.5625 -15.410156 6.265625 -14.195312 6.265625 -12.65625 C 6.265625 -11.113281 6.566406 -9.875 7.171875 -8.9375 C 7.785156 -8 8.597656 -7.53125 9.609375 -7.53125 Z M 7.671875 -3.4375 C 8.234375 -3.382812 8.75 -3.332031 9.21875 -3.28125 C 9.6875 -3.238281 10.144531 -3.191406 10.59375 -3.140625 C 11.050781 -3.097656 11.507812 -3.039062 11.96875 -2.96875 C 12.425781 -2.90625 12.921875 -2.835938 13.453125 -2.765625 C 15.140625 -2.515625 16.488281 -1.867188 17.5 -0.828125 C 18.519531 0.210938 19.03125 1.515625 19.03125 3.078125 C 19.03125 5.046875 18.253906 6.539062 16.703125 7.5625 C 15.148438 8.59375 12.898438 9.109375 9.953125 9.109375 C 8.640625 9.109375 7.441406 8.988281 6.359375 8.75 C 5.273438 8.519531 4.347656 8.1875 3.578125 7.75 C 2.804688 7.320312 2.203125 6.804688 1.765625 6.203125 C 1.335938 5.597656 1.125 4.929688 1.125 4.203125 C 1.125 3.710938 1.203125 3.253906 1.359375 2.828125 C 1.523438 2.410156 1.75 2.046875 2.03125 1.734375 C 2.3125 1.421875 2.644531 1.171875 3.03125 0.984375 C 3.414062 0.796875 3.816406 0.703125 4.234375 0.703125 C 5.035156 0.703125 5.75 0.945312 6.375 1.4375 C 5.75 1.570312 5.234375 1.914062 4.828125 2.46875 C 4.429688 3.019531 4.234375 3.644531 4.234375 4.34375 C 4.234375 5.375 4.742188 6.164062 5.765625 6.71875 C 6.785156 7.28125 8.226562 7.5625 10.09375 7.5625 C 14.09375 7.5625 16.09375 6.335938 16.09375 3.890625 C 16.09375 2.953125 15.773438 2.171875 15.140625 1.546875 C 14.503906 0.929688 13.753906 0.566406 12.890625 0.453125 C 12.335938 0.378906 11.757812 0.300781 11.15625 0.21875 C 10.5625 0.144531 9.976562 0.0703125 9.40625 0 C 8.832031 -0.0703125 8.300781 -0.128906 7.8125 -0.171875 C 7.320312 -0.222656 6.925781 -0.269531 6.625 -0.3125 C 5.3125 -0.457031 4.316406 -0.804688 3.640625 -1.359375 C 2.960938 -1.921875 2.625 -2.695312 2.625 -3.6875 C 2.625 -4.5 2.960938 -5.21875 3.640625 -5.84375 C 4.316406 -6.476562 5.171875 -6.878906 6.203125 -7.046875 L 6.203125 -7.1875 C 5.691406 -7.394531 5.210938 -7.691406 4.765625 -8.078125 C 4.316406 -8.460938 3.9375 -8.898438 3.625 -9.390625 C 3.3125 -9.878906 3.0625 -10.410156 2.875 -10.984375 C 2.6875 -11.554688 2.59375 -12.144531 2.59375 -12.75 C 2.59375 -13.644531 2.757812 -14.460938 3.09375 -15.203125 C 3.4375 -15.953125 3.914062 -16.601562 4.53125 -17.15625 C 5.15625 -17.707031 5.882812 -18.140625 6.71875 -18.453125 C 7.5625 -18.765625 8.488281 -18.921875 9.5 -18.921875 C 10.53125 -18.921875 11.5 -18.765625 12.40625 -18.453125 C 13.3125 -18.140625 14.09375 -17.675781 14.75 -17.0625 C 15.550781 -17.71875 16.253906 -18.191406 16.859375 -18.484375 C 17.460938 -18.773438 18.035156 -18.921875 18.578125 -18.921875 C 19.421875 -18.921875 20.09375 -18.726562 20.59375 -18.34375 C 21.09375 -17.957031 21.34375 -17.4375 21.34375 -16.78125 C 21.34375 -16.382812 21.207031 -16.066406 20.9375 -15.828125 C 20.664062 -15.597656 20.332031 -15.484375 19.9375 -15.484375 C 19.613281 -15.484375 19.34375 -15.539062 19.125 -15.65625 C 18.914062 -15.78125 18.722656 -15.90625 18.546875 -16.03125 C 18.378906 -16.164062 18.203125 -16.289062 18.015625 -16.40625 C 17.828125 -16.519531 17.59375 -16.578125 17.3125 -16.578125 C 16.75 -16.578125 16.175781 -16.378906 15.59375 -15.984375 C 16.15625 -15.117188 16.4375 -14.03125 16.4375 -12.71875 C 16.4375 -10.738281 15.816406 -9.179688 14.578125 -8.046875 C 13.335938 -6.910156 11.476562 -6.25 9 -6.0625 C 7.582031 -5.945312 6.59375 -5.796875 6.03125 -5.609375 C 5.46875 -5.421875 5.1875 -5.082031 5.1875 -4.59375 C 5.1875 -4.21875 5.394531 -3.941406 5.8125 -3.765625 C 6.238281 -3.585938 6.859375 -3.476562 7.671875 -3.4375 Z M 7.671875 -3.4375 "/></g></g></g><g fill="#ce7e98" fill-opacity="1"><g transform="translate(598.559665, 34.48118)"><g><path d="M 2.34375 -1.921875 C 2.34375 -2.578125 2.566406 -3.125 3.015625 -3.5625 C 3.460938 -4.007812 4 -4.234375 4.625 -4.234375 C 5.28125 -4.234375 5.828125 -4.007812 6.265625 -3.5625 C 6.710938 -3.125 6.9375 -2.578125 6.9375 -1.921875 C 6.9375 -1.296875 6.710938 -0.757812 6.265625 -0.3125 C 5.828125 0.125 5.28125 0.34375 4.625 0.34375 C 4 0.34375 3.460938 0.125 3.015625 -0.3125 C 2.566406 -0.757812 2.34375 -1.296875 2.34375 -1.921875 Z M 2.34375 -1.921875 "/></g></g></g></g></g><path stroke-linecap="round" transform="matrix(0.749207, 0, 0, 0.749207, 522.580603, 174.110104)" fill="none" stroke-linejoin="miter" d="M 5.001984 4.999105 L 38.089045 4.999105 " stroke="#efa73a" stroke-width="10" stroke-opacity="1" stroke-miterlimit="4"/><g transform="matrix(1, 0, 0, 1, 476, 130)"><g clip-path="url(#770e7a6917)"><g fill="#fdf9f5" fill-opacity="1"><g transform="translate(2.961168, 143.386832)"><g><path d="M 76.8125 -1.859375 C 77.125 -1.859375 77.28125 -1.546875 77.28125 -0.921875 C 77.28125 -0.304688 77.125 0 76.8125 0 C 74.132812 0 72.019531 -0.0507812 70.46875 -0.15625 L 61.203125 -0.3125 L 49.296875 -0.15625 C 47.546875 -0.0507812 45.175781 0 42.1875 0 C 41.882812 0 41.734375 -0.304688 41.734375 -0.921875 C 41.734375 -1.546875 41.882812 -1.859375 42.1875 -1.859375 C 45.894531 -1.859375 47.75 -2.9375 47.75 -5.09375 C 47.75 -6.226562 47.335938 -7.257812 46.515625 -8.1875 L 28.90625 -30.75 L 25.96875 -28.125 L 25.96875 -12.515625 C 25.96875 -8.398438 26.554688 -5.59375 27.734375 -4.09375 C 28.921875 -2.601562 31.113281 -1.859375 34.3125 -1.859375 C 34.71875 -1.859375 34.921875 -1.546875 34.921875 -0.921875 C 34.921875 -0.304688 34.71875 0 34.3125 0 C 31.632812 0 29.46875 -0.0507812 27.8125 -0.15625 L 18.859375 -0.3125 L 9.578125 -0.15625 C 8.035156 -0.0507812 5.925781 0 3.25 0 C 3.039062 0 2.9375 -0.304688 2.9375 -0.921875 C 2.9375 -1.546875 3.039062 -1.859375 3.25 -1.859375 C 6.4375 -1.859375 8.625 -2.601562 9.8125 -4.09375 C 11 -5.59375 11.59375 -8.398438 11.59375 -12.515625 L 11.59375 -91.03125 C 11.59375 -94.632812 11.253906 -97.207031 10.578125 -98.75 C 9.910156 -100.300781 8.753906 -101.078125 7.109375 -101.078125 C 5.671875 -101.078125 3.710938 -100.507812 1.234375 -99.375 L 1.078125 -99.375 C 0.773438 -99.375 0.492188 -99.65625 0.234375 -100.21875 C -0.0234375 -100.789062 -0.0507812 -101.128906 0.15625 -101.234375 L 22.71875 -111.890625 L 23.484375 -112.046875 C 24.003906 -112.046875 24.546875 -111.8125 25.109375 -111.34375 C 25.679688 -110.882812 25.96875 -110.445312 25.96875 -110.03125 L 25.96875 -31.6875 L 40.34375 -45.59375 C 43.019531 -48.0625 44.359375 -50.585938 44.359375 -53.171875 C 44.359375 -54.503906 43.84375 -55.609375 42.8125 -56.484375 C 41.78125 -57.359375 40.335938 -57.796875 38.484375 -57.796875 C 38.273438 -57.796875 38.171875 -58.101562 38.171875 -58.71875 C 38.171875 -59.34375 38.273438 -59.65625 38.484375 -59.65625 C 41.472656 -59.65625 43.789062 -59.601562 45.4375 -59.5 L 57.640625 -59.34375 L 68.921875 -59.5 C 70.367188 -59.601562 72.378906 -59.65625 74.953125 -59.65625 C 75.265625 -59.65625 75.421875 -59.34375 75.421875 -58.71875 C 75.421875 -58.101562 75.265625 -57.796875 74.953125 -57.796875 C 70.523438 -57.796875 65.453125 -56.6875 59.734375 -54.46875 C 54.015625 -52.257812 48.890625 -49.039062 44.359375 -44.8125 L 38.796875 -39.71875 L 59.96875 -12.515625 C 62.957031 -8.804688 65.816406 -6.101562 68.546875 -4.40625 C 71.273438 -2.707031 74.03125 -1.859375 76.8125 -1.859375 Z M 76.8125 -1.859375 "/></g></g></g></g></g><path stroke-linecap="round" transform="matrix(-0.633666, 0.399724, -0.399724, -0.633666, 551.192116, 139.756996)" fill="none" stroke-linejoin="miter" d="M 5.000994 5.002756 L 41.829359 5.00042 " stroke="#efa73a" stroke-width="10" stroke-opacity="1" stroke-miterlimit="4"/></svg>